<svg width="260" height="410" viewBox="0 0 260 410" fill="none" xmlns="http://www.w3.org/2000/svg">
<rect width="260" height="410" rx="17" fill="url(#paint0_linear_1_70)" fill-opacity="0.8" style="mix-blend-mode:soft-light"/>
<rect width="260" height="410" rx="17" fill="url(#paint1_linear_1_70)"/>
<mask id="mask0_1_70" style="mask-type:alpha" maskUnits="userSpaceOnUse" x="0" y="0" width="260" height="410">
<rect width="260" height="410" rx="17" fill="url(#paint2_linear_1_70)" fill-opacity="0.8"/>
<rect width="260" height="410" rx="17" fill="url(#paint3_linear_1_70)"/>
</mask>
<g mask="url(#mask0_1_70)">
<g filter="url(#filter0_f_1_70)">
<ellipse cx="87.3437" cy="61.9884" rx="122.891" ry="93.2262" fill="#1C5AF6"/>
</g>
<g filter="url(#filter1_f_1_70)">
<ellipse cx="25.8984" cy="328.488" rx="92.9297" ry="116.655" fill="#B0EAFA"/>
</g>
<g filter="url(#filter2_b_1_70)">
<rect width="260" height="410" rx="17" fill="white" fill-opacity="0.07" style="mix-blend-mode:soft-light"/>
</g>
</g>
<path d="M43.0412 372.444C41.0812 372.444 39.3359 372.052 37.8052 371.268C36.2745 370.465 35.0892 369.326 34.2492 367.852C33.3905 366.377 32.9612 364.641 32.9612 362.644C32.9612 360.926 33.2879 359.396 33.9412 358.052C34.5759 356.689 35.4812 355.588 36.6572 354.748C37.8332 353.889 39.2052 353.32 40.7732 353.04L40.7732 359.592C40.1199 359.89 39.6159 360.32 39.2612 360.88C38.8879 361.421 38.7012 362.046 38.7012 362.756C38.7012 363.801 39.0932 364.632 39.8772 365.248C40.6612 365.845 41.7159 366.144 43.0412 366.144C44.3665 366.144 45.4212 365.845 46.2052 365.248C46.9892 364.632 47.3812 363.801 47.3812 362.756C47.3812 362.046 47.2039 361.421 46.8492 360.88C46.4759 360.32 45.9625 359.89 45.3092 359.592L45.3092 353.04C46.8772 353.32 48.2492 353.889 49.4252 354.748C50.6012 355.588 51.5159 356.689 52.1692 358.052C52.8039 359.396 53.1212 360.926 53.1212 362.644C53.1212 364.641 52.7012 366.377 51.8612 367.852C51.0025 369.326 49.8079 370.465 48.2772 371.268C46.7465 372.052 45.0012 372.444 43.0412 372.444ZM42.8172 335.16C43.0972 333.965 43.6759 333.041 44.5532 332.388C45.4119 331.716 46.4105 331.38 47.5492 331.38C49.2852 331.38 50.6292 331.958 51.5812 333.116C52.5145 334.254 52.9812 335.897 52.9812 338.044L52.9812 348.432L33.1572 348.432L33.1572 338.324C33.1572 336.308 33.5959 334.721 34.4732 333.564C35.3505 332.406 36.6292 331.828 38.3092 331.828C39.4665 331.828 40.4465 332.136 41.2492 332.752C42.0332 333.349 42.5559 334.152 42.8172 335.16ZM40.8852 342.216L40.8852 339.808C40.8852 339.248 40.7732 338.837 40.5492 338.576C40.3252 338.296 39.9799 338.156 39.5132 338.156C39.0279 338.156 38.6732 338.296 38.4492 338.576C38.2065 338.837 38.0852 339.248 38.0852 339.808L38.0852 342.216L40.8852 342.216ZM47.9972 339.388C47.9972 338.828 47.8945 338.417 47.6892 338.156C47.4652 337.876 47.1105 337.736 46.6252 337.736C45.6732 337.736 45.1972 338.286 45.1972 339.388L45.1972 342.216L47.9972 342.216L47.9972 339.388Z" fill="white"/>
<path d="M38.2512 289.875L44.4532 289.875C45.1905 289.875 45.7459 289.684 46.1192 289.301C46.4925 288.909 46.6792 288.368 46.6792 287.677C46.6792 286.977 46.4925 286.436 46.1192 286.053C45.7459 285.661 45.1905 285.465 44.4532 285.465L38.2512 285.465L38.2512 283.869L44.4252 283.869C45.2185 283.869 45.8905 284.042 46.4412 284.387C46.9919 284.733 47.4025 285.195 47.6732 285.773C47.9439 286.352 48.0792 286.991 48.0792 287.691C48.0792 288.391 47.9439 289.031 47.6732 289.609C47.4025 290.179 46.9919 290.631 46.4412 290.967C45.8905 291.303 45.2185 291.471 44.4252 291.471L38.2512 291.471L38.2512 289.875ZM40.1412 277.899C40.1412 277.293 40.2672 276.751 40.5192 276.275C40.7712 275.79 41.1445 275.412 41.6392 275.141C42.1339 274.871 42.7312 274.735 43.4312 274.735L47.9812 274.735L47.9812 276.317L43.6692 276.317C42.9785 276.317 42.4512 276.49 42.0872 276.835C41.7139 277.181 41.5272 277.652 41.5272 278.249C41.5272 278.847 41.7139 279.323 42.0872 279.677C42.4512 280.023 42.9785 280.195 43.6692 280.195L47.9812 280.195L47.9812 281.791L40.2672 281.791L40.2672 280.195L41.1492 280.195C40.8319 279.934 40.5845 279.603 40.4072 279.201C40.2299 278.791 40.1412 278.357 40.1412 277.899ZM39.2452 271.888C39.2452 272.177 39.1472 272.42 38.9512 272.616C38.7552 272.812 38.5125 272.91 38.2232 272.91C37.9339 272.91 37.6912 272.812 37.4952 272.616C37.2992 272.42 37.2012 272.177 37.2012 271.888C37.2012 271.608 37.2992 271.37 37.4952 271.174C37.6912 270.978 37.9339 270.88 38.2232 270.88C38.5125 270.88 38.7552 270.978 38.9512 271.174C39.1472 271.37 39.2452 271.608 39.2452 271.888ZM40.2672 271.104L47.9812 271.104L47.9812 272.7L40.2672 272.7L40.2672 271.104ZM46.5532 266.026L40.2672 263.842L40.2672 262.148L47.9812 265.088L47.9812 266.992L40.2672 269.918L40.2672 268.21L46.5532 266.026ZM43.9352 253.872C44.2245 253.872 44.4859 253.89 44.7192 253.928L44.7192 259.822C45.3352 259.775 45.8299 259.546 46.2032 259.136C46.5765 258.725 46.7632 258.221 46.7632 257.624C46.7632 256.765 46.4039 256.158 45.6852 255.804L45.6852 254.082C46.3945 254.315 46.9779 254.74 47.4352 255.356C47.8832 255.962 48.1072 256.718 48.1072 257.624C48.1072 258.361 47.9439 259.024 47.6172 259.612C47.2812 260.19 46.8145 260.648 46.2172 260.984C45.6105 261.31 44.9105 261.474 44.1172 261.474C43.3239 261.474 42.6285 261.315 42.0312 260.998C41.4245 260.671 40.9579 260.218 40.6312 259.64C40.3045 259.052 40.1412 258.38 40.1412 257.624C40.1412 256.896 40.2999 256.247 40.6172 255.678C40.9345 255.108 41.3825 254.665 41.9612 254.348C42.5305 254.03 43.1885 253.872 43.9352 253.872ZM43.4312 255.538C42.8432 255.547 42.3719 255.757 42.0172 256.168C41.6625 256.578 41.4852 257.087 41.4852 257.694C41.4852 258.244 41.6625 258.716 42.0172 259.108C42.3625 259.5 42.8339 259.733 43.4312 259.808L43.4312 255.538ZM41.3872 250.705C40.9952 250.472 40.6919 250.164 40.4772 249.781C40.2532 249.389 40.1412 248.927 40.1412 248.395L41.7932 248.395L41.7932 248.801C41.7932 249.427 41.9519 249.903 42.2692 250.229C42.5865 250.547 43.1372 250.705 43.9212 250.705L47.9812 250.705L47.9812 252.301L40.2672 252.301L40.2672 250.705L41.3872 250.705ZM48.1072 244.128C48.1072 244.735 47.9999 245.281 47.7852 245.766C47.5612 246.242 47.2625 246.62 46.8892 246.9C46.5065 247.18 46.0819 247.329 45.6152 247.348L45.6152 245.696C45.9419 245.668 46.2172 245.514 46.4412 245.234C46.6559 244.945 46.7632 244.585 46.7632 244.156C46.7632 243.708 46.6792 243.363 46.5112 243.12C46.3339 242.868 46.1099 242.742 45.8392 242.742C45.5499 242.742 45.3352 242.882 45.1952 243.162C45.0552 243.433 44.9012 243.867 44.7332 244.464C44.5745 245.043 44.4205 245.514 44.2712 245.878C44.1219 246.242 43.8932 246.559 43.5852 246.83C43.2772 247.091 42.8712 247.222 42.3672 247.222C41.9565 247.222 41.5832 247.101 41.2472 246.858C40.9019 246.615 40.6312 246.27 40.4352 245.822C40.2392 245.365 40.1412 244.842 40.1412 244.254C40.1412 243.377 40.3652 242.672 40.8132 242.14C41.2519 241.599 41.8539 241.309 42.6192 241.272L42.6192 242.868C42.2739 242.896 41.9985 243.036 41.7932 243.288C41.5879 243.54 41.4852 243.881 41.4852 244.31C41.4852 244.73 41.5645 245.052 41.7232 245.276C41.8819 245.5 42.0919 245.612 42.3532 245.612C42.5585 245.612 42.7312 245.537 42.8712 245.388C43.0112 245.239 43.1232 245.057 43.2072 244.842C43.2819 244.627 43.3799 244.31 43.5012 243.89C43.6505 243.33 43.8045 242.873 43.9632 242.518C44.1125 242.154 44.3365 241.841 44.6352 241.58C44.9339 241.319 45.3305 241.183 45.8252 241.174C46.2639 241.174 46.6559 241.295 47.0012 241.538C47.3465 241.781 47.6172 242.126 47.8132 242.574C48.0092 243.013 48.1072 243.531 48.1072 244.128ZM44.0892 239.982C43.3145 239.982 42.6285 239.823 42.0312 239.506C41.4339 239.179 40.9719 238.74 40.6452 238.19C40.3092 237.63 40.1412 237.014 40.1412 236.342C40.1412 235.735 40.2625 235.208 40.5052 234.76C40.7385 234.302 41.0325 233.938 41.3872 233.668L40.2672 233.668L40.2672 232.058L47.9812 232.058L47.9812 233.668L46.8332 233.668C47.1972 233.938 47.5005 234.307 47.7432 234.774C47.9859 235.24 48.1072 235.772 48.1072 236.37C48.1072 237.032 47.9392 237.639 47.6032 238.19C47.2579 238.74 46.7819 239.179 46.1752 239.506C45.5592 239.823 44.8639 239.982 44.0892 239.982ZM44.1172 233.668C43.5852 233.668 43.1232 233.78 42.7312 234.004C42.3392 234.218 42.0405 234.503 41.8352 234.858C41.6299 235.212 41.5272 235.595 41.5272 236.006C41.5272 236.416 41.6299 236.799 41.8352 237.154C42.0312 237.508 42.3252 237.798 42.7172 238.022C43.0999 238.236 43.5572 238.344 44.0892 238.344C44.6212 238.344 45.0879 238.236 45.4892 238.022C45.8905 237.798 46.1985 237.508 46.4132 237.154C46.6185 236.79 46.7212 236.407 46.7212 236.006C46.7212 235.595 46.6185 235.212 46.4132 234.858C46.2079 234.503 45.9092 234.218 45.5172 234.004C45.1159 233.78 44.6492 233.668 44.1172 233.668ZM37.6212 228.365L47.9812 228.365L47.9812 229.961L37.6212 229.961L37.6212 228.365ZM42.9832 217.425C43.0765 216.903 43.3519 216.459 43.8092 216.095C44.2665 215.731 44.7845 215.549 45.3632 215.549C45.8579 215.549 46.3059 215.68 46.7072 215.941C47.0992 216.193 47.4119 216.562 47.6452 217.047C47.8692 217.533 47.9812 218.097 47.9812 218.741L47.9812 222.633L38.2512 222.633L38.2512 218.923C38.2512 218.261 38.3632 217.691 38.5872 217.215C38.8112 216.739 39.1145 216.38 39.4972 216.137C39.8705 215.895 40.2905 215.773 40.7572 215.773C41.3172 215.773 41.7839 215.923 42.1572 216.221C42.5305 216.52 42.8059 216.921 42.9832 217.425ZM42.3392 221.037L42.3392 219.063C42.3392 218.541 42.2225 218.135 41.9892 217.845C41.7465 217.547 41.4012 217.397 40.9532 217.397C40.5145 217.397 40.1739 217.547 39.9312 217.845C39.6792 218.135 39.5532 218.541 39.5532 219.063L39.5532 221.037L42.3392 221.037ZM46.6792 218.881C46.6792 218.34 46.5485 217.915 46.2872 217.607C46.0259 217.299 45.6619 217.145 45.1952 217.145C44.7192 217.145 44.3412 217.309 44.0612 217.635C43.7812 217.962 43.6412 218.396 43.6412 218.937L43.6412 221.037L46.6792 221.037L46.6792 218.881ZM44.0892 214.347C43.3145 214.347 42.6285 214.188 42.0312 213.871C41.4339 213.544 40.9719 213.106 40.6452 212.555C40.3092 211.995 40.1412 211.379 40.1412 210.707C40.1412 210.1 40.2625 209.573 40.5052 209.125C40.7385 208.668 41.0325 208.304 41.3872 208.033L40.2672 208.033L40.2672 206.423L47.9812 206.423L47.9812 208.033L46.8332 208.033C47.1972 208.304 47.5005 208.672 47.7432 209.139C47.9859 209.606 48.1072 210.138 48.1072 210.735C48.1072 211.398 47.9392 212.004 47.6032 212.555C47.2579 213.106 46.7819 213.544 46.1752 213.871C45.5592 214.188 44.8639 214.347 44.0892 214.347ZM44.1172 208.033C43.5852 208.033 43.1232 208.145 42.7312 208.369C42.3392 208.584 42.0405 208.868 41.8352 209.223C41.6299 209.578 41.5272 209.96 41.5272 210.371C41.5272 210.782 41.6299 211.164 41.8352 211.519C42.0312 211.874 42.3252 212.163 42.7172 212.387C43.0999 212.602 43.5572 212.709 44.0892 212.709C44.6212 212.709 45.0879 212.602 45.4892 212.387C45.8905 212.163 46.1985 211.874 46.4132 211.519C46.6185 211.155 46.7212 210.772 46.7212 210.371C46.7212 209.96 46.6185 209.578 46.4132 209.223C46.2079 208.868 45.9092 208.584 45.5172 208.369C45.1159 208.145 44.6492 208.033 44.1172 208.033ZM40.1412 200.435C40.1412 199.828 40.2672 199.287 40.5192 198.811C40.7712 198.325 41.1445 197.947 41.6392 197.677C42.1339 197.406 42.7312 197.271 43.4312 197.271L47.9812 197.271L47.9812 198.853L43.6692 198.853C42.9785 198.853 42.4512 199.025 42.0872 199.371C41.7139 199.716 41.5272 200.187 41.5272 200.785C41.5272 201.382 41.7139 201.858 42.0872 202.213C42.4512 202.558 42.9785 202.731 43.6692 202.731L47.9812 202.731L47.9812 204.327L40.2672 204.327L40.2672 202.731L41.1492 202.731C40.8319 202.469 40.5845 202.138 40.4072 201.737C40.2299 201.326 40.1412 200.892 40.1412 200.435ZM44.1312 192.183L47.9812 188.627L47.9812 190.783L44.6632 193.639L47.9812 193.639L47.9812 195.235L37.6212 195.235L37.6212 193.639L43.6412 193.639L40.2672 190.839L40.2672 188.627L44.1312 192.183Z" fill="white" fill-opacity="0.6"/>
<line x1="36.7925" y1="306.694" x2="56.4151" y2="306.694" stroke="white"/>
<rect x="90.7546" y="373.284" width="58.7463" height="49.0566" rx="10" transform="rotate(-90 90.7546 373.284)" fill="white" fill-opacity="0.3"/>
<path fill-rule="evenodd" clip-rule="evenodd" d="M100.914 44.6047C101.585 43.9338 102.299 43.3066 103.051 42.7289C104.197 41.8708 105.426 41.1255 106.721 40.5103C107.044 40.3552 107.372 40.2114 107.702 40.0733C108.69 39.6779 109.704 39.3556 110.737 39.1064C111.261 38.9825 111.789 38.876 112.324 38.7891C112.39 38.7793 112.457 38.769 112.524 38.7586C112.59 38.7483 112.657 38.738 112.723 38.7282C112.754 38.7239 112.784 38.7201 112.814 38.7163C112.844 38.7125 112.873 38.7086 112.904 38.7043L112.923 38.7013C112.967 38.6958 112.986 38.6933 112.99 38.6928C113.237 38.6632 113.484 38.6376 113.732 38.6195C114.803 38.5304 115.879 38.5196 116.953 38.5891C117.222 38.6065 117.487 38.6282 117.755 38.6565C117.878 38.6684 118 38.6822 118.121 38.6961C118.116 38.6958 118.121 38.6968 118.141 38.7C118.178 38.7043 118.215 38.7092 118.251 38.7141C118.287 38.719 118.324 38.7239 118.361 38.7282C118.893 38.8043 119.424 38.8999 119.952 39.0151C121.133 39.2737 122.29 39.6328 123.414 40.086C124.715 40.6306 125.964 41.3011 127.136 42.088C127.449 42.2976 127.753 42.5155 128.053 42.7403C128.798 43.3142 129.507 43.9369 130.172 44.6025C130.514 44.9437 131.14 44.9698 131.476 44.6025C131.813 44.2352 131.841 43.6636 131.476 43.2985C129.818 41.6447 127.897 40.2321 125.811 39.1672C123.796 38.1393 121.621 37.4069 119.387 37.0287C117.098 36.6441 114.795 36.6093 112.495 36.9092C110.25 37.2026 108.068 37.8589 106.012 38.8064C103.896 39.7844 101.942 41.1166 100.229 42.6987C100.017 42.8936 99.8115 43.095 99.6079 43.2943L99.6057 43.2964C99.2645 43.6376 99.2385 44.2635 99.6057 44.6003C99.9774 44.9415 100.547 44.9676 100.914 44.6047ZM112.956 38.6968L112.923 38.7013L112.841 38.7115L112.87 38.7076C112.89 38.7048 112.91 38.7021 112.93 38.7L112.956 38.6968ZM112.956 38.6968L112.99 38.6928C112.991 38.6925 112.99 38.6926 112.988 38.6928C112.984 38.6933 112.971 38.6948 112.956 38.6968ZM102.907 42.8378C102.938 42.8142 102.969 42.7907 103 42.7673C102.969 42.7908 102.939 42.8143 102.907 42.8378ZM123.22 40.0061C123.272 40.0272 123.324 40.0485 123.376 40.0701L123.22 40.0061ZM128.18 42.8356C128.155 42.8173 128.131 42.799 128.107 42.7807L128.18 42.8356ZM109.918 53.5832C110.176 53.3256 110.448 53.0861 110.735 52.8614C111.285 52.4586 111.877 52.1183 112.504 51.8504C112.9 51.6942 113.304 51.5656 113.718 51.4665C113.929 51.4165 114.138 51.3731 114.351 51.3384C114.377 51.334 114.404 51.3302 114.431 51.3264C114.454 51.3231 114.477 51.3199 114.499 51.3162C114.518 51.3139 114.544 51.3103 114.568 51.3069C114.574 51.3061 114.58 51.3052 114.587 51.3043L114.6 51.3023L114.603 51.3023C114.616 51.3021 114.628 51.3019 114.636 51.3015C114.695 51.2949 114.756 51.2906 114.817 51.2863L114.817 51.2863C115.25 51.2493 115.689 51.245 116.122 51.2732C116.229 51.2797 116.337 51.2884 116.444 51.2993C116.478 51.3021 116.512 51.3057 116.547 51.3097C116.615 51.3196 116.651 51.3244 116.667 51.3262C116.86 51.3563 117.053 51.3917 117.245 51.4339C117.709 51.5349 118.165 51.677 118.606 51.8492C119.234 52.1189 119.831 52.4588 120.383 52.863C120.67 53.0882 120.941 53.3295 121.202 53.5853C121.543 53.9262 122.17 53.9522 122.507 53.5853C122.844 53.2184 122.873 52.6474 122.507 52.2827C121.093 50.8802 119.246 49.8925 117.275 49.5625C115.265 49.2238 113.231 49.4908 111.377 50.3419C110.353 50.813 109.411 51.4882 108.61 52.2828C108.269 52.6236 108.242 53.2489 108.61 53.5854C108.982 53.9219 109.552 53.9479 109.918 53.5832ZM116.602 51.3162L116.547 51.3097L116.49 51.3014L116.54 51.308L116.59 51.3145L116.602 51.3162ZM116.602 51.3162L116.667 51.3262C116.698 51.3297 116.644 51.3207 116.605 51.3166L116.605 51.3166L116.602 51.3162ZM114.6 51.3023C114.556 51.3029 114.496 51.3041 114.475 51.3188C114.475 51.3193 114.485 51.3181 114.499 51.3162L114.51 51.3145C114.523 51.3123 114.537 51.3107 114.55 51.309L114.568 51.3069L114.587 51.3043C114.588 51.304 114.589 51.3038 114.591 51.3036C114.594 51.3032 114.597 51.3027 114.6 51.3023ZM114.6 51.3023C114.6 51.3023 114.6 51.3023 114.6 51.3023C114.649 51.2954 114.634 51.2976 114.6 51.3023ZM110.62 52.9471L110.672 52.9083C110.655 52.9212 110.638 52.9341 110.62 52.9471ZM112.665 51.7834L112.569 51.8229C112.601 51.8095 112.633 51.7964 112.665 51.7834ZM120.499 52.9492C120.482 52.9364 120.465 52.9236 120.448 52.9108L120.499 52.9492ZM106.868 47.7429C106.345 48.1476 105.846 48.5847 105.377 49.0521C105.012 49.4168 104.442 49.3908 104.072 49.0564C103.704 48.7199 103.731 48.0947 104.072 47.7538C104.22 47.6062 104.37 47.4608 104.525 47.3196C105.756 46.1864 107.159 45.229 108.68 44.5277C110.159 43.846 111.723 43.3749 113.338 43.1622C115.013 42.9407 116.679 42.9668 118.346 43.2447C119.955 43.5139 121.524 44.0458 122.979 44.7861C124.478 45.5481 125.857 46.5641 127.05 47.7495C127.415 48.1142 127.387 48.6852 127.05 49.0521C126.712 49.419 126.086 49.3929 125.744 49.0521C125.276 48.5846 124.777 48.1476 124.254 47.7428C123.261 47.006 122.181 46.3908 121.04 45.9103C120.255 45.5971 119.44 45.3463 118.613 45.166C118.245 45.0857 117.873 45.0184 117.499 44.9663C117.49 44.9651 117.481 44.9635 117.471 44.9617C117.466 44.9612 117.46 44.9605 117.454 44.9598L117.395 44.9532C117.308 44.9402 117.221 44.9315 117.134 44.9228C116.94 44.9033 116.747 44.8881 116.551 44.8751C115.791 44.8252 115.03 44.8338 114.275 44.8968C114.114 44.908 113.953 44.9257 113.791 44.9443C113.859 44.9354 113.792 44.9427 113.749 44.9489C113.742 44.9498 113.736 44.9506 113.729 44.9515C113.724 44.9521 113.719 44.9526 113.714 44.9532L113.714 44.9532C113.701 44.9554 113.687 44.957 113.674 44.9587C113.66 44.9603 113.646 44.9619 113.633 44.9641C113.646 44.9626 113.657 44.9612 113.668 44.9598C113.648 44.9627 113.628 44.9656 113.607 44.9684L113.607 44.9684L113.346 45.0075C112.966 45.0705 112.587 45.1443 112.215 45.2333C111.487 45.4065 110.775 45.6331 110.084 45.9092C108.942 46.3898 107.861 47.0054 106.868 47.7429ZM106.726 47.8494C106.754 47.8283 106.782 47.8073 106.81 47.7864C106.782 47.8074 106.755 47.8284 106.726 47.8494ZM110.248 45.8412L110.163 45.8761C110.192 45.8644 110.22 45.8528 110.248 45.8412ZM113.668 44.9598C113.729 44.9523 113.768 44.9473 113.791 44.9443C113.771 44.9467 113.75 44.9491 113.729 44.9515C113.708 44.9542 113.688 44.957 113.668 44.9598ZM117.469 44.9613C117.461 44.9599 117.454 44.9583 117.446 44.9568C117.409 44.9494 117.37 44.9417 117.338 44.9446C117.337 44.9458 117.425 44.9561 117.469 44.9613ZM120.873 45.8412C120.902 45.8527 120.93 45.8644 120.958 45.8761L120.873 45.8412ZM124.396 47.8493C124.367 47.8283 124.34 47.8073 124.312 47.7863C124.34 47.8072 124.368 47.8282 124.396 47.8493Z" fill="white" fill-opacity="0.4"/>
<path d="M171.642 360.436L171.642 366.816L173.49 366.816C173.241 366.537 173.043 366.178 172.896 365.738C172.749 365.283 172.676 364.777 172.676 364.22C172.676 363.222 172.911 362.379 173.38 361.69C173.849 361 174.48 360.487 175.272 360.15C176.049 359.812 176.915 359.644 177.868 359.644C179.628 359.644 180.999 360.142 181.982 361.14C182.95 362.122 183.434 363.479 183.434 365.21C183.434 366.471 183.214 367.564 182.774 368.488C182.334 369.397 181.725 370.094 180.948 370.578C180.171 371.047 179.283 371.267 178.286 371.238L178.286 366.486C178.521 366.486 178.741 366.405 178.946 366.244C179.151 366.082 179.254 365.818 179.254 365.452C179.254 365.085 179.122 364.814 178.858 364.638C178.594 364.462 178.235 364.374 177.78 364.374C177.355 364.374 177.032 364.476 176.812 364.682C176.592 364.872 176.482 365.151 176.482 365.518C176.482 365.826 176.555 366.06 176.702 366.222C176.849 366.383 177.017 366.464 177.208 366.464L177.208 371.216L167.352 371.216L167.352 360.436L171.642 360.436ZM181.014 357.396L176.944 357.396L167.594 350.84L167.594 345.582L176.79 345.582L176.79 343.998L181.014 343.998L181.014 345.582L183.434 345.582L183.434 350.51L181.014 350.51L181.014 357.396ZM173.16 350.114L176.79 352.49L176.79 350.114L173.16 350.114ZM174.59 339.552C174.253 340.139 173.813 340.601 173.27 340.938C172.713 341.261 172.053 341.422 171.29 341.422C170.498 341.422 169.779 341.209 169.134 340.784C168.489 340.359 167.975 339.713 167.594 338.848C167.198 337.968 167 336.89 167 335.614C167 334.338 167.198 333.267 167.594 332.402C167.975 331.522 168.489 330.869 169.134 330.444C169.779 330.019 170.498 329.806 171.29 329.806C172.053 329.806 172.713 329.975 173.27 330.312C173.813 330.635 174.253 331.089 174.59 331.676C175.455 330.195 176.753 329.454 178.484 329.454C179.599 329.454 180.545 329.733 181.322 330.29C182.099 330.847 182.686 331.595 183.082 332.534C183.478 333.473 183.676 334.499 183.676 335.614C183.676 336.729 183.478 337.755 183.082 338.694C182.686 339.633 182.099 340.381 181.322 340.938C180.545 341.495 179.599 341.774 178.484 341.774C176.753 341.774 175.455 341.033 174.59 339.552ZM172.104 334.602C171.693 334.602 171.371 334.697 171.136 334.888C170.887 335.079 170.762 335.321 170.762 335.614C170.762 335.907 170.887 336.149 171.136 336.34C171.371 336.531 171.693 336.626 172.104 336.626C172.529 336.626 172.852 336.531 173.072 336.34C173.292 336.149 173.402 335.907 173.402 335.614C173.402 335.321 173.292 335.079 173.072 334.888C172.852 334.697 172.529 334.602 172.104 334.602ZM176.68 335.614C176.68 336.054 176.827 336.406 177.12 336.67C177.399 336.919 177.758 337.044 178.198 337.044C178.638 337.044 178.997 336.919 179.276 336.67C179.555 336.421 179.694 336.069 179.694 335.614C179.694 335.159 179.555 334.807 179.276 334.558C178.997 334.309 178.638 334.184 178.198 334.184C177.758 334.184 177.399 334.316 177.12 334.58C176.827 334.829 176.68 335.174 176.68 335.614ZM178.418 322.563C178.843 322.49 179.166 322.358 179.386 322.167C179.591 321.962 179.694 321.683 179.694 321.331C179.694 320.788 179.423 320.436 178.88 320.275C178.323 320.099 177.435 320.011 176.218 320.011C176.629 320.275 176.951 320.656 177.186 321.155C177.421 321.654 177.538 322.218 177.538 322.849C177.538 324.242 177.098 325.364 176.218 326.215C175.338 327.066 174.069 327.491 172.412 327.491C171.312 327.491 170.359 327.264 169.552 326.809C168.731 326.34 168.1 325.68 167.66 324.829C167.22 323.964 167 322.959 167 321.815C167 319.498 167.682 317.892 169.046 316.997C170.41 316.088 172.353 315.633 174.876 315.633C177.78 315.633 179.958 316.08 181.41 316.975C182.862 317.855 183.588 319.344 183.588 321.441C183.588 322.6 183.346 323.597 182.862 324.433C182.378 325.269 181.747 325.914 180.97 326.369C180.178 326.809 179.327 327.058 178.418 327.117L178.418 322.563ZM173.798 321.639C173.798 321.243 173.688 320.928 173.468 320.693C173.248 320.458 172.94 320.341 172.544 320.341C172.104 320.341 171.781 320.458 171.576 320.693C171.356 320.913 171.246 321.228 171.246 321.639C171.246 322.05 171.356 322.372 171.576 322.607C171.781 322.827 172.104 322.937 172.544 322.937C172.94 322.937 173.248 322.82 173.468 322.585C173.688 322.35 173.798 322.035 173.798 321.639ZM170.938 299.802L183.434 304.818L183.434 309.834L171.532 304.774L171.532 310.45L167.352 310.45L167.352 299.802L170.938 299.802ZM181.014 298.224L176.944 298.224L167.594 291.668L167.594 286.41L176.79 286.41L176.79 284.826L181.014 284.826L181.014 286.41L183.434 286.41L183.434 291.338L181.014 291.338L181.014 298.224ZM173.16 290.942L176.79 293.318L176.79 290.942L173.16 290.942ZM171.642 270.81L171.642 277.19L173.49 277.19C173.241 276.911 173.043 276.552 172.896 276.112C172.749 275.657 172.676 275.151 172.676 274.594C172.676 273.596 172.911 272.753 173.38 272.064C173.849 271.374 174.48 270.861 175.272 270.524C176.049 270.186 176.915 270.018 177.868 270.018C179.628 270.018 180.999 270.516 181.982 271.514C182.95 272.496 183.434 273.853 183.434 275.584C183.434 276.845 183.214 277.938 182.774 278.862C182.334 279.771 181.725 280.468 180.948 280.952C180.171 281.421 179.283 281.641 178.286 281.612L178.286 276.86C178.521 276.86 178.741 276.779 178.946 276.618C179.151 276.456 179.254 276.192 179.254 275.826C179.254 275.459 179.122 275.188 178.858 275.012C178.594 274.836 178.235 274.748 177.78 274.748C177.355 274.748 177.032 274.85 176.812 275.056C176.592 275.246 176.482 275.525 176.482 275.892C176.482 276.2 176.555 276.434 176.702 276.596C176.849 276.757 177.017 276.838 177.208 276.838L177.208 281.59L167.352 281.59L167.352 270.81L171.642 270.81ZM179.54 268.298C178.073 266.333 176.746 264.778 175.558 263.634C174.355 262.49 173.233 261.918 172.192 261.918C171.84 261.918 171.569 261.999 171.378 262.16C171.187 262.307 171.092 262.505 171.092 262.754C171.092 263.048 171.246 263.282 171.554 263.458C171.847 263.62 172.302 263.678 172.918 263.634L172.918 268.364C171.554 268.32 170.432 268.027 169.552 267.484C168.672 266.927 168.027 266.208 167.616 265.328C167.205 264.448 167 263.48 167 262.424C167 260.547 167.455 259.176 168.364 258.31C169.259 257.43 170.41 256.99 171.818 256.99C173.299 256.99 174.693 257.467 175.998 258.42C177.289 259.359 178.381 260.54 179.276 261.962L179.276 256.924L183.214 256.924L183.214 268.298L179.54 268.298ZM171.642 239.427L171.642 245.807L173.49 245.807C173.241 245.528 173.043 245.169 172.896 244.729C172.749 244.274 172.676 243.768 172.676 243.211C172.676 242.214 172.911 241.37 173.38 240.681C173.849 239.992 174.48 239.478 175.272 239.141C176.049 238.804 176.915 238.635 177.868 238.635C179.628 238.635 180.999 239.134 181.982 240.131C182.95 241.114 183.434 242.47 183.434 244.201C183.434 245.462 183.214 246.555 182.774 247.479C182.334 248.388 181.725 249.085 180.948 249.569C180.171 250.038 179.283 250.258 178.286 250.229L178.286 245.477C178.521 245.477 178.741 245.396 178.946 245.235C179.151 245.074 179.254 244.81 179.254 244.443C179.254 244.076 179.122 243.805 178.858 243.629C178.594 243.453 178.235 243.365 177.78 243.365C177.355 243.365 177.032 243.468 176.812 243.673C176.592 243.864 176.482 244.142 176.482 244.509C176.482 244.817 176.555 245.052 176.702 245.213C176.849 245.374 177.017 245.455 177.208 245.455L177.208 250.207L167.352 250.207L167.352 239.427L171.642 239.427ZM170.938 226.488L183.434 231.504L183.434 236.52L171.532 231.46L171.532 237.136L167.352 237.136L167.352 226.488L170.938 226.488ZM179.54 225.438C178.073 223.472 176.746 221.918 175.558 220.774C174.355 219.63 173.233 219.058 172.192 219.058C171.84 219.058 171.569 219.138 171.378 219.3C171.187 219.446 171.092 219.644 171.092 219.894C171.092 220.187 171.246 220.422 171.554 220.598C171.847 220.759 172.302 220.818 172.918 220.774L172.918 225.504C171.554 225.46 170.432 225.166 169.552 224.624C168.672 224.066 168.027 223.348 167.616 222.468C167.205 221.588 167 220.62 167 219.564C167 217.686 167.455 216.315 168.364 215.45C169.259 214.57 170.41 214.13 171.818 214.13C173.299 214.13 174.693 214.606 175.998 215.56C177.289 216.498 178.381 217.679 179.276 219.102L179.276 214.064L183.214 214.064L183.214 225.438L179.54 225.438ZM172.236 205.343C171.796 205.431 171.473 205.563 171.268 205.739C171.063 205.9 170.96 206.157 170.96 206.509C170.96 207.066 171.246 207.44 171.818 207.631C172.375 207.807 173.248 207.895 174.436 207.895C174.025 207.631 173.703 207.249 173.468 206.751C173.233 206.252 173.116 205.687 173.116 205.057C173.116 203.649 173.549 202.527 174.414 201.691C175.279 200.84 176.533 200.415 178.176 200.415C179.276 200.415 180.237 200.649 181.058 201.119C181.865 201.573 182.488 202.226 182.928 203.077C183.368 203.927 183.588 204.932 183.588 206.091C183.588 208.393 182.884 209.992 181.476 210.887C180.053 211.781 178.066 212.229 175.514 212.229C173.519 212.229 171.906 212.023 170.674 211.613C169.442 211.202 168.533 210.557 167.946 209.677C167.359 208.782 167.066 207.623 167.066 206.201C167.066 204.455 167.565 203.143 168.562 202.263C169.559 201.368 170.784 200.877 172.236 200.789L172.236 205.343ZM176.856 206.267C176.856 206.663 176.966 206.978 177.186 207.213C177.406 207.447 177.714 207.565 178.11 207.565C178.55 207.565 178.88 207.455 179.1 207.235C179.305 207 179.408 206.677 179.408 206.267C179.408 205.856 179.305 205.541 179.1 205.321C178.88 205.086 178.55 204.969 178.11 204.969C177.714 204.969 177.406 205.086 177.186 205.321C176.966 205.555 176.856 205.871 176.856 206.267ZM178.418 189.685C178.843 189.611 179.166 189.479 179.386 189.289C179.591 189.083 179.694 188.805 179.694 188.453C179.694 187.91 179.423 187.558 178.88 187.397C178.323 187.221 177.435 187.133 176.218 187.133C176.629 187.397 176.951 187.778 177.186 188.277C177.421 188.775 177.538 189.34 177.538 189.971C177.538 191.364 177.098 192.486 176.218 193.337C175.338 194.187 174.069 194.613 172.412 194.613C171.312 194.613 170.359 194.385 169.552 193.931C168.731 193.461 168.1 192.801 167.66 191.951C167.22 191.085 167 190.081 167 188.937C167 186.619 167.682 185.013 169.046 184.119C170.41 183.209 172.353 182.755 174.876 182.755C177.78 182.755 179.958 183.202 181.41 184.097C182.862 184.977 183.588 186.465 183.588 188.563C183.588 189.721 183.346 190.719 182.862 191.555C182.378 192.391 181.747 193.036 180.97 193.491C180.178 193.931 179.327 194.18 178.418 194.239L178.418 189.685ZM173.798 188.761C173.798 188.365 173.688 188.049 173.468 187.815C173.248 187.58 172.94 187.463 172.544 187.463C172.104 187.463 171.781 187.58 171.576 187.815C171.356 188.035 171.246 188.35 171.246 188.761C171.246 189.171 171.356 189.494 171.576 189.729C171.781 189.949 172.104 190.059 172.544 190.059C172.94 190.059 173.248 189.941 173.468 189.707C173.688 189.472 173.798 189.157 173.798 188.761ZM174.59 178.648C174.253 179.234 173.813 179.696 173.27 180.034C172.713 180.356 172.053 180.518 171.29 180.518C170.498 180.518 169.779 180.305 169.134 179.88C168.489 179.454 167.975 178.809 167.594 177.944C167.198 177.064 167 175.986 167 174.71C167 173.434 167.198 172.363 167.594 171.498C167.975 170.618 168.489 169.965 169.134 169.54C169.779 169.114 170.498 168.902 171.29 168.902C172.053 168.902 172.713 169.07 173.27 169.408C173.813 169.73 174.253 170.185 174.59 170.772C175.455 169.29 176.753 168.55 178.484 168.55C179.599 168.55 180.545 168.828 181.322 169.386C182.099 169.943 182.686 170.691 183.082 171.63C183.478 172.568 183.676 173.595 183.676 174.71C183.676 175.824 183.478 176.851 183.082 177.79C182.686 178.728 182.099 179.476 181.322 180.034C180.545 180.591 179.599 180.87 178.484 180.87C176.753 180.87 175.455 180.129 174.59 178.648ZM172.104 173.698C171.693 173.698 171.371 173.793 171.136 173.984C170.887 174.174 170.762 174.416 170.762 174.71C170.762 175.003 170.887 175.245 171.136 175.436C171.371 175.626 171.693 175.722 172.104 175.722C172.529 175.722 172.852 175.626 173.072 175.436C173.292 175.245 173.402 175.003 173.402 174.71C173.402 174.416 173.292 174.174 173.072 173.984C172.852 173.793 172.529 173.698 172.104 173.698ZM176.68 174.71C176.68 175.15 176.827 175.502 177.12 175.766C177.399 176.015 177.758 176.14 178.198 176.14C178.638 176.14 178.997 176.015 179.276 175.766C179.555 175.516 179.694 175.164 179.694 174.71C179.694 174.255 179.555 173.903 179.276 173.654C178.997 173.404 178.638 173.28 178.198 173.28C177.758 173.28 177.399 173.412 177.12 173.676C176.827 173.925 176.68 174.27 176.68 174.71ZM179.54 166.631C178.073 164.665 176.746 163.111 175.558 161.967C174.355 160.823 173.233 160.251 172.192 160.251C171.84 160.251 171.569 160.331 171.378 160.493C171.187 160.639 171.092 160.837 171.092 161.087C171.092 161.38 171.246 161.615 171.554 161.791C171.847 161.952 172.302 162.011 172.918 161.967L172.918 166.697C171.554 166.653 170.432 166.359 169.552 165.817C168.672 165.259 168.027 164.541 167.616 163.661C167.205 162.781 167 161.813 167 160.757C167 158.879 167.455 157.508 168.364 156.643C169.259 155.763 170.41 155.323 171.818 155.323C173.299 155.323 174.693 155.799 175.998 156.753C177.289 157.691 178.381 158.872 179.276 160.295L179.276 155.257L183.214 155.257L183.214 166.631L179.54 166.631ZM170.938 143.522L183.434 148.538L183.434 153.554L171.532 148.494L171.532 154.17L167.352 154.17L167.352 143.522L170.938 143.522Z" fill="white"/>
<path d="M212.192 372.416C210.587 372.416 209.336 372.154 208.44 371.632C207.535 371.109 207.082 370.194 207.082 368.888C207.082 367.59 207.535 366.68 208.44 366.158C209.336 365.635 210.587 365.374 212.192 365.374C213.826 365.374 215.095 365.635 216 366.158C216.906 366.68 217.358 367.59 217.358 368.888C217.358 370.194 216.906 371.109 216 371.632C215.095 372.154 213.826 372.416 212.192 372.416ZM212.192 366.634C211.38 366.634 210.694 366.69 210.134 366.802C209.565 366.904 209.108 367.124 208.762 367.46C208.417 367.786 208.244 368.262 208.244 368.888C208.244 369.522 208.417 370.008 208.762 370.344C209.108 370.67 209.565 370.89 210.134 371.002C210.694 371.104 211.38 371.156 212.192 371.156C213.032 371.156 213.737 371.104 214.306 371.002C214.876 370.89 215.333 370.67 215.678 370.344C216.024 370.008 216.196 369.522 216.196 368.888C216.196 368.262 216.024 367.786 215.678 367.46C215.333 367.124 214.876 366.904 214.306 366.802C213.737 366.69 213.032 366.634 212.192 366.634ZM215.104 363.793L214.138 363.793L207.334 358.879L207.334 357.353L213.998 357.353L213.998 355.953L215.104 355.953L215.104 357.353L217.358 357.353L217.358 358.613L215.104 358.613L215.104 363.793ZM208.664 358.557L213.998 362.323L213.998 358.557L208.664 358.557ZM204.17 349.57L219.738 353.406L219.738 354.666L204.17 350.844L204.17 349.57ZM216.336 347.896C215.384 346.71 214.605 345.782 213.998 345.11C213.382 344.438 212.743 343.873 212.08 343.416C211.408 342.949 210.75 342.716 210.106 342.716C209.5 342.716 209.024 342.865 208.678 343.164C208.324 343.453 208.146 343.924 208.146 344.578C208.146 345.212 208.347 345.707 208.748 346.062C209.14 346.407 209.668 346.594 210.33 346.622L210.33 347.854C209.285 347.816 208.478 347.499 207.908 346.902C207.339 346.304 207.054 345.534 207.054 344.592C207.054 343.63 207.32 342.87 207.852 342.31C208.384 341.74 209.117 341.456 210.05 341.456C210.825 341.456 211.581 341.689 212.318 342.156C213.046 342.613 213.69 343.136 214.25 343.724C214.801 344.312 215.445 345.063 216.182 345.978L216.182 341.162L217.246 341.162L217.246 347.896L216.336 347.896ZM215.104 339.857L214.138 339.857L207.334 334.943L207.334 333.417L213.998 333.417L213.998 332.017L215.104 332.017L215.104 333.417L217.358 333.417L217.358 334.677L215.104 334.677L215.104 339.857ZM208.664 334.621L213.998 338.387L213.998 334.621L208.664 334.621Z" fill="white" fill-opacity="0.6"/>
<g clip-path="url(#clip0_1_70)">
<path d="M242.026 74.482L239.765 74.482C239.575 74.4688 239.384 74.4962 239.206 74.5623C239.027 74.6283 238.864 74.7315 238.729 74.865C238.593 74.9984 238.488 75.1591 238.42 75.3363C238.352 75.5135 238.322 75.7032 238.333 75.8926C238.317 76.1406 238.368 76.3883 238.48 76.6101C238.593 76.8318 238.764 77.0194 238.974 77.1532C238.77 77.2751 238.603 77.4496 238.49 77.6583C238.377 77.8669 238.323 78.102 238.333 78.3387C238.323 78.545 238.367 78.7505 238.461 78.9348C238.554 79.119 238.695 79.2757 238.868 79.3892L238.424 79.3892L238.424 80.1695L242.026 80.1695L242.026 79.3817L240.044 79.3817C239.921 79.3984 239.796 79.3879 239.677 79.3508C239.558 79.3137 239.449 79.251 239.358 79.1671C239.266 79.0832 239.195 78.9803 239.148 78.8656C239.101 78.7509 239.08 78.6274 239.087 78.5038C239.087 77.986 239.426 77.7234 240.037 77.7234L242.042 77.7234L242.042 76.9356L240.044 76.9356C239.921 76.9516 239.796 76.9406 239.678 76.9033C239.559 76.8659 239.451 76.8032 239.359 76.7194C239.268 76.6357 239.196 76.533 239.149 76.4187C239.102 76.3043 239.081 76.1811 239.087 76.0577C239.087 75.5249 239.426 75.2698 240.037 75.2698L242.042 75.2698L242.026 74.482ZM238.424 62.8255L238.424 64.1086L237.331 64.1086L237.331 64.8964L238.424 64.8964L238.424 65.6092L239.14 65.6092L239.14 64.8814L240.798 64.8814C241.635 64.8814 242.132 64.5588 242.132 63.6359C242.133 63.2911 242.036 62.9529 241.853 62.6604L241.182 62.8855C241.308 63.0948 241.378 63.3323 241.386 63.5758C241.386 63.951 241.145 64.0936 240.783 64.0936L239.14 64.0936L239.14 62.818L238.424 62.8255ZM238.333 56.17C238.328 56.3603 238.374 56.5485 238.467 56.7149C238.559 56.8813 238.696 57.0197 238.861 57.1154L238.424 57.1154L238.424 57.8883L242.026 57.8883L242.026 57.1079L240.006 57.1079C239.411 57.1079 239.079 56.8528 239.079 56.3576C239.077 56.1907 239.108 56.025 239.17 55.8699L238.416 55.6298C238.352 55.808 238.319 55.9958 238.318 56.185L238.333 56.17ZM238.71 66.232C238.446 66.6737 238.315 67.1816 238.333 67.6952C238.333 68.6031 238.77 69.1959 239.486 69.1959C240.074 69.1959 240.436 68.7607 240.549 67.9578L240.602 67.5826C240.662 67.1549 240.775 66.9524 240.979 66.9524C241.258 66.9524 241.416 67.2375 241.416 67.7702C241.428 68.1987 241.296 68.619 241.039 68.9632L241.65 69.3384C241.968 68.8839 242.132 68.3394 242.117 67.7852C242.117 66.7498 241.627 66.1495 240.941 66.1495C240.255 66.1495 239.976 66.6222 239.863 67.4026L239.811 67.7777C239.765 68.1154 239.697 68.3855 239.456 68.3855C239.215 68.3855 239.034 68.1304 239.034 67.7027C239.039 67.3074 239.145 66.9199 239.343 66.5772L238.71 66.232ZM238.333 45.3314C238.328 45.5217 238.374 45.7099 238.467 45.8763C238.559 46.0427 238.696 46.1811 238.861 46.2769L238.424 46.2769L238.424 47.0497L242.026 47.0497L242.026 46.2693L240.006 46.2693C239.411 46.2693 239.079 46.0142 239.079 45.519C239.077 45.3521 239.108 45.1864 239.17 45.0313L238.416 44.7912C238.352 44.9694 238.319 45.1572 238.318 45.3464L238.333 45.3314ZM240.218 55.3859C240.471 55.3952 240.723 55.3518 240.958 55.2584C241.194 55.165 241.407 55.0238 241.584 54.8437C241.762 54.6636 241.899 54.4486 241.988 54.2125C242.078 53.9764 242.116 53.7244 242.102 53.4726C242.126 53.004 241.972 52.5436 241.672 52.182L241.039 52.5572C241.246 52.8269 241.359 53.1559 241.363 53.4951C241.34 53.7835 241.208 54.0526 240.994 54.2488C240.781 54.445 240.501 54.554 240.21 54.554C239.919 54.554 239.639 54.445 239.426 54.2488C239.212 54.0526 239.08 53.7835 239.057 53.4951C239.061 53.1559 239.174 52.8269 239.381 52.5572L238.748 52.182C238.448 52.5436 238.294 53.004 238.318 53.4726C238.304 53.7244 238.342 53.9764 238.432 54.2125C238.521 54.4486 238.658 54.6636 238.836 54.8437C239.013 55.0238 239.226 55.165 239.462 55.2584C239.697 55.3518 239.949 55.3952 240.202 55.3859L240.218 55.3859ZM240.218 48.0777L238.424 48.0777L238.424 48.858L238.861 48.858C238.69 48.9905 238.552 49.1617 238.461 49.3574C238.369 49.5531 238.325 49.7677 238.333 49.9835C238.333 50.481 238.532 50.9581 238.885 51.3099C239.239 51.6617 239.718 51.8593 240.218 51.8593C240.717 51.8593 241.197 51.6617 241.55 51.3099C241.903 50.9581 242.102 50.481 242.102 49.9835C242.11 49.7677 242.066 49.5531 241.974 49.3574C241.883 49.1617 241.745 48.9905 241.574 48.858L242.011 48.858L242.011 48.0777L240.218 48.0777ZM240.218 50.9815C240.005 50.969 239.802 50.8951 239.631 50.7688C239.461 50.6425 239.331 50.4694 239.258 50.2707C239.186 50.072 239.173 49.8565 239.221 49.6507C239.27 49.4448 239.378 49.2576 239.532 49.1121C239.687 48.9667 239.88 48.8693 240.089 48.8319C240.298 48.7946 240.514 48.8189 240.709 48.9019C240.905 48.985 241.071 49.1231 241.189 49.2993C241.306 49.4754 241.37 49.682 241.371 49.8935C241.373 50.042 241.344 50.1893 241.286 50.3262C241.227 50.463 241.142 50.5864 241.033 50.6886C240.925 50.7908 240.797 50.8696 240.656 50.92C240.516 50.9704 240.366 50.9913 240.218 50.9815ZM238.333 60.3982C238.34 60.8957 238.545 61.37 238.904 61.7169C239.262 62.0638 239.744 62.2547 240.244 62.2477C240.744 62.2408 241.22 62.0365 241.569 61.6798C241.917 61.323 242.109 60.8431 242.102 60.3456C242.13 59.8059 241.955 59.2751 241.612 58.8562L241.032 59.2314C241.27 59.5276 241.403 59.8947 241.408 60.2744C241.431 60.5323 241.351 60.7887 241.186 60.9891C241.022 61.1895 240.785 61.318 240.527 61.3473L240.527 58.6837C240.429 58.6837 240.331 58.6837 240.225 58.6837C239.094 58.6837 238.341 59.3815 238.341 60.3869L238.333 60.3982ZM239.034 60.3982C239.032 60.2814 239.052 60.1653 239.095 60.0564C239.138 59.9476 239.201 59.8482 239.282 59.7639C239.364 59.6796 239.461 59.612 239.568 59.5651C239.676 59.5181 239.791 59.4927 239.909 59.4903L239.909 61.3661C239.667 61.3525 239.44 61.2452 239.276 61.0671C239.113 60.889 239.026 60.6543 239.034 60.4132L239.034 60.3982ZM240.225 40.8482L236.977 40.8482L236.977 41.5985L238.861 41.5985C238.69 41.731 238.552 41.9022 238.461 42.0979C238.369 42.2936 238.325 42.5082 238.333 42.724C238.333 43.2215 238.532 43.6986 238.885 44.0504C239.239 44.4022 239.718 44.5999 240.218 44.5999C240.717 44.5999 241.197 44.4022 241.55 44.0504C241.903 43.6986 242.102 43.2215 242.102 42.724C242.11 42.5082 242.066 42.2936 241.974 42.0979C241.883 41.9022 241.745 41.731 241.574 41.5985L242.011 41.5985L242.011 40.8482L240.225 40.8482ZM241.503 39.5463C241.502 39.4976 241.511 39.4491 241.529 39.4038C241.547 39.3607 241.572 39.3213 241.604 39.2875C241.637 39.2545 241.675 39.2278 241.717 39.2087C241.761 39.1897 241.809 39.1799 241.857 39.1799C241.905 39.1799 241.952 39.1897 241.996 39.2087C242.039 39.2278 242.077 39.2545 242.109 39.2875C242.142 39.3213 242.167 39.3607 242.185 39.4038C242.205 39.4487 242.215 39.4972 242.215 39.5463C242.214 39.6175 242.193 39.687 242.155 39.7467C242.116 39.8065 242.061 39.8541 241.996 39.884C241.952 39.9028 241.905 39.9125 241.857 39.9125C241.809 39.9125 241.761 39.9028 241.717 39.884C241.675 39.8649 241.637 39.8382 241.604 39.8052C241.572 39.7714 241.547 39.732 241.529 39.6889C241.509 39.64 241.5 39.5876 241.503 39.5351L241.503 39.5463ZM242.139 39.5463C242.14 39.5089 242.132 39.4718 242.117 39.4375C242.102 39.4053 242.082 39.376 242.057 39.3513C242.005 39.3043 241.938 39.2783 241.868 39.2783C241.798 39.2783 241.731 39.3043 241.68 39.3513C241.654 39.3759 241.634 39.4052 241.619 39.4375C241.604 39.4719 241.597 39.5089 241.597 39.5463C241.597 39.5837 241.605 39.6207 241.619 39.6551C241.633 39.6889 241.654 39.7195 241.68 39.7452C241.731 39.7921 241.798 39.8181 241.868 39.8181C241.938 39.8181 242.005 39.7921 242.057 39.7452C242.082 39.7194 242.103 39.6888 242.117 39.6551C242.133 39.6173 242.141 39.5763 242.139 39.5351L242.139 39.5463ZM241.691 39.5238C241.689 39.4888 241.7 39.4543 241.721 39.4263C241.731 39.4148 241.743 39.4058 241.757 39.3999C241.77 39.394 241.785 39.3915 241.8 39.3925C241.813 39.392 241.825 39.394 241.837 39.3986C241.849 39.4031 241.859 39.41 241.868 39.4188C241.888 39.4405 241.9 39.4683 241.902 39.4976L242.026 39.3888L242.026 39.4751L241.902 39.5764L241.902 39.6101L242.026 39.6101L242.026 39.6814L241.695 39.6814L241.691 39.5238ZM241.755 39.6064L241.846 39.6064L241.846 39.5238C241.85 39.5091 241.85 39.4935 241.846 39.4788C241.84 39.4762 241.834 39.4748 241.829 39.4748C241.823 39.4748 241.817 39.4762 241.812 39.4788C241.806 39.4762 241.801 39.4748 241.795 39.4748C241.789 39.4748 241.783 39.4762 241.778 39.4788C241.773 39.4935 241.773 39.5091 241.778 39.5238L241.755 39.6064ZM240.225 43.7332C240.013 43.7208 239.809 43.6469 239.639 43.5206C239.468 43.3943 239.339 43.2212 239.266 43.0225C239.193 42.8238 239.18 42.6083 239.229 42.4024C239.278 42.1966 239.386 42.0094 239.54 41.8639C239.694 41.7184 239.888 41.621 240.097 41.5837C240.306 41.5463 240.521 41.5707 240.717 41.6537C240.912 41.7367 241.079 41.8749 241.196 42.051C241.314 42.2272 241.377 42.4337 241.378 42.6452C241.38 42.7938 241.351 42.9411 241.293 43.0779C241.235 43.2148 241.149 43.3382 241.041 43.4404C240.932 43.5426 240.804 43.6213 240.664 43.6717C240.523 43.7221 240.374 43.7431 240.225 43.7332ZM240.225 70.0812L238.424 70.0812L238.424 70.8616L238.861 70.8616C238.69 70.9941 238.552 71.1653 238.461 71.361C238.369 71.5567 238.325 71.7713 238.333 71.9871C238.333 72.4846 238.532 72.9617 238.885 73.3135C239.239 73.6653 239.718 73.8629 240.218 73.8629C240.717 73.8629 241.197 73.6653 241.55 73.3135C241.903 72.9617 242.102 72.4846 242.102 71.9871C242.11 71.7713 242.066 71.5567 241.974 71.361C241.883 71.1653 241.745 70.9941 241.574 70.8616L242.011 70.8616L242.011 70.0812L240.225 70.0812ZM240.225 72.985C240.013 72.9726 239.809 72.8987 239.639 72.7724C239.468 72.6461 239.339 72.473 239.266 72.2743C239.193 72.0756 239.18 71.8601 239.229 71.6542C239.278 71.4484 239.386 71.2612 239.54 71.1157C239.694 70.9702 239.888 70.8728 240.097 70.8355C240.306 70.7981 240.521 70.8225 240.717 70.9055C240.912 70.9886 241.079 71.1267 241.196 71.3029C241.314 71.479 241.377 71.6856 241.378 71.8971C241.381 72.0462 241.353 72.1944 241.295 72.3321C241.238 72.4699 241.152 72.5942 241.044 72.6972C240.935 72.8002 240.806 72.8796 240.665 72.9305C240.525 72.9813 240.375 73.0025 240.225 72.9926L240.225 72.985Z" fill="white"/>
<path d="M210.97 54.6732L210.97 66.491L232.304 66.491L232.304 54.6732L210.97 54.6732Z" fill="#FF5F00"/>
<path d="M221.639 65.7406C219.584 65.7428 217.556 65.2795 215.707 64.3857C213.859 63.492 212.239 62.1913 210.97 60.5821C209.397 62.5745 208.419 64.9673 208.148 67.487C207.876 70.0067 208.322 72.5516 209.435 74.8309C210.548 77.1101 212.282 79.0318 214.44 80.3762C216.597 81.7206 219.092 82.4336 221.637 82.4336C224.183 82.4336 226.677 81.7206 228.835 80.3762C230.993 79.0318 232.727 77.1101 233.839 74.8309C234.952 72.5516 235.398 70.0067 235.127 67.487C234.855 64.9673 233.877 62.5745 232.304 60.5821C231.036 62.1908 229.416 63.4912 227.569 64.3849C225.721 65.2786 223.693 65.7422 221.639 65.7406Z" fill="#EB001B"/>
<path d="M221.639 38.7286C224.184 38.7286 226.679 39.4417 228.837 40.7864C230.994 42.1311 232.729 44.053 233.841 46.3325C234.954 48.6121 235.399 51.1572 235.127 53.6771C234.856 56.1969 233.877 58.5898 232.304 60.5821C231.034 58.974 229.414 57.6739 227.567 56.78C225.719 55.886 223.691 55.4215 221.637 55.4215C219.582 55.4215 217.555 55.886 215.707 56.78C213.859 57.6739 212.239 58.974 210.97 60.5821C209.396 58.5898 208.418 56.1969 208.146 53.6771C207.874 51.1572 208.32 48.6121 209.432 46.3325C210.545 44.053 212.279 42.1311 214.437 40.7864C216.595 39.4417 219.089 38.7286 221.635 38.7286L221.639 38.7286Z" fill="#F79E1B"/>
<path d="M230.042 40.0191L229.605 40.0191L229.605 39.8428L229.515 39.8428L229.515 40.2893L229.605 40.2893L229.605 40.0979L230.042 40.0979L230.042 40.0191ZM230.042 39.1525L229.515 39.1525L229.515 39.2876L229.892 39.4451L229.515 39.6027L229.515 39.7228L230.042 39.7228L230.042 39.6252L229.647 39.6252L229.99 39.4789L229.99 39.3776L229.647 39.2313L230.046 39.2313L230.042 39.1525Z" fill="#F79E1B"/>
</g>
<defs>
<filter id="filter0_f_1_70" x="-109.547" y="-105.238" width="393.781" height="334.452" filterUnits="userSpaceOnUse" color-interpolation-filters="sRGB">
<feFlood flood-opacity="0" result="BackgroundImageFix"/>
<feBlend mode="normal" in="SourceGraphic" in2="BackgroundImageFix" result="shape"/>
<feGaussianBlur stdDeviation="37" result="effect1_foregroundBlur_1_70"/>
</filter>
<filter id="filter1_f_1_70" x="-191.031" y="87.8331" width="433.859" height="481.31" filterUnits="userSpaceOnUse" color-interpolation-filters="sRGB">
<feFlood flood-opacity="0" result="BackgroundImageFix"/>
<feBlend mode="normal" in="SourceGraphic" in2="BackgroundImageFix" result="shape"/>
<feGaussianBlur stdDeviation="62" result="effect1_foregroundBlur_1_70"/>
</filter>
<filter id="filter2_b_1_70" x="-40" y="-40" width="340" height="490" filterUnits="userSpaceOnUse" color-interpolation-filters="sRGB">
<feFlood flood-opacity="0" result="BackgroundImageFix"/>
<feGaussianBlur in="BackgroundImageFix" stdDeviation="20"/>
<feComposite in2="SourceAlpha" operator="in" result="effect1_backgroundBlur_1_70"/>
<feBlend mode="normal" in="SourceGraphic" in2="effect1_backgroundBlur_1_70" result="shape"/>
</filter>
<linearGradient id="paint0_linear_1_70" x1="245.781" y1="6.83333" x2="13.7864" y2="394.815" gradientUnits="userSpaceOnUse">
<stop stop-color="#55C0F7"/>
<stop offset="1" stop-color="#A8E8FA"/>
</linearGradient>
<linearGradient id="paint1_linear_1_70" x1="8.125" y1="5.85714" x2="239.188" y2="417.967" gradientUnits="userSpaceOnUse">
<stop stop-color="#1B5CF6"/>
<stop offset="0.503297" stop-color="#429EFF"/>
<stop offset="1" stop-color="#CB5BAA"/>
</linearGradient>
<linearGradient id="paint2_linear_1_70" x1="245.781" y1="6.83333" x2="13.7864" y2="394.815" gradientUnits="userSpaceOnUse">
<stop stop-color="#55C0F7"/>
<stop offset="1" stop-color="#A8E8FA"/>
</linearGradient>
<linearGradient id="paint3_linear_1_70" x1="8.125" y1="5.85714" x2="239.188" y2="417.967" gradientUnits="userSpaceOnUse">
<stop stop-color="#1B5CF6"/>
<stop offset="0.503297" stop-color="#429EFF"/>
<stop offset="0.890632" stop-color="#D33BA7"/>
</linearGradient>
<clipPath id="clip0_1_70">
<rect width="55.0746" height="45.3774" fill="white" transform="translate(202.359 88.1194) rotate(-90)"/>
</clipPath>
</defs>
</svg>
