<svg width="335" height="212" viewBox="0 0 335 212" fill="none" xmlns="http://www.w3.org/2000/svg">
<rect x="335" width="212" height="335" rx="17" transform="rotate(90 335 0)" fill="url(#paint0_linear_1_242)" fill-opacity="0.8" style="mix-blend-mode:soft-light"/>
<rect x="335" width="212" height="335" rx="17" transform="rotate(90 335 0)" fill="url(#paint1_linear_1_242)"/>
<mask id="mask0_1_242" style="mask-type:alpha" maskUnits="userSpaceOnUse" x="0" y="0" width="335" height="212">
<rect x="335" width="212" height="335" rx="17" transform="rotate(90 335 0)" fill="url(#paint2_linear_1_242)" fill-opacity="0.8"/>
<rect x="335" width="212" height="335" rx="17" transform="rotate(90 335 0)" fill="url(#paint3_linear_1_242)"/>
</mask>
<g mask="url(#mask0_1_242)">
<g filter="url(#filter0_f_1_242)">
<ellipse cx="284.351" cy="71.2188" rx="100.203" ry="76.1726" transform="rotate(90 284.351 71.2188)" fill="#1C5AF6"/>
</g>
<g filter="url(#filter1_f_1_242)">
<ellipse cx="66.6013" cy="21.1172" rx="75.7734" ry="95.3155" transform="rotate(90 66.6013 21.1172)" fill="#B0EAFA"/>
</g>
<g filter="url(#filter2_b_1_242)">
<rect x="335" width="212" height="335" rx="17" transform="rotate(90 335 0)" fill="white" fill-opacity="0.07" style="mix-blend-mode:soft-light"/>
</g>
</g>
<path d="M30.84 38.06C30.84 36.1 31.232 34.3547 32.016 32.824C32.8187 31.2933 33.9573 30.108 35.432 29.268C36.9067 28.4093 38.6427 27.98 40.64 27.98C42.3573 27.98 43.888 28.3067 45.232 28.96C46.5947 29.5947 47.696 30.5 48.536 31.676C49.3947 32.852 49.964 34.224 50.244 35.792H43.692C43.3933 35.1387 42.964 34.6347 42.404 34.28C41.8627 33.9067 41.2373 33.72 40.528 33.72C39.4827 33.72 38.652 34.112 38.036 34.896C37.4387 35.68 37.14 36.7347 37.14 38.06C37.14 39.3853 37.4387 40.44 38.036 41.224C38.652 42.008 39.4827 42.4 40.528 42.4C41.2373 42.4 41.8627 42.2227 42.404 41.868C42.964 41.4947 43.3933 40.9813 43.692 40.328H50.244C49.964 41.896 49.3947 43.268 48.536 44.444C47.696 45.62 46.5947 46.5347 45.232 47.188C43.888 47.8227 42.3573 48.14 40.64 48.14C38.6427 48.14 36.9067 47.72 35.432 46.88C33.9573 46.0213 32.8187 44.8267 32.016 43.296C31.232 41.7653 30.84 40.02 30.84 38.06ZM68.124 37.836C69.3187 38.116 70.2427 38.6947 70.896 39.572C71.568 40.4307 71.904 41.4293 71.904 42.568C71.904 44.304 71.3254 45.648 70.168 46.6C69.0294 47.5333 67.3867 48 65.24 48H54.852V28.176H64.96C66.976 28.176 68.5627 28.6147 69.72 29.492C70.8774 30.3693 71.456 31.648 71.456 33.328C71.456 34.4853 71.148 35.4653 70.532 36.268C69.9347 37.052 69.132 37.5747 68.124 37.836ZM61.068 35.904H63.476C64.036 35.904 64.4467 35.792 64.708 35.568C64.988 35.344 65.128 34.9987 65.128 34.532C65.128 34.0467 64.988 33.692 64.708 33.468C64.4467 33.2253 64.036 33.104 63.476 33.104H61.068V35.904ZM63.896 43.016C64.456 43.016 64.8667 42.9133 65.128 42.708C65.408 42.484 65.548 42.1293 65.548 41.644C65.548 40.692 64.9974 40.216 63.896 40.216H61.068V43.016H63.896Z" fill="white"/>
<path d="M98.632 33.27V39.472C98.632 40.2093 98.8233 40.7647 99.206 41.138C99.598 41.5113 100.139 41.698 100.83 41.698C101.53 41.698 102.071 41.5113 102.454 41.138C102.846 40.7647 103.042 40.2093 103.042 39.472V33.27H104.638V39.444C104.638 40.2373 104.465 40.9093 104.12 41.46C103.775 42.0107 103.313 42.4213 102.734 42.692C102.155 42.9627 101.516 43.098 100.816 43.098C100.116 43.098 99.4767 42.9627 98.898 42.692C98.3287 42.4213 97.876 42.0107 97.54 41.46C97.204 40.9093 97.036 40.2373 97.036 39.444V33.27H98.632ZM110.608 35.16C111.215 35.16 111.756 35.286 112.232 35.538C112.717 35.79 113.095 36.1633 113.366 36.658C113.637 37.1527 113.772 37.75 113.772 38.45V43H112.19V38.688C112.19 37.9973 112.017 37.47 111.672 37.106C111.327 36.7327 110.855 36.546 110.258 36.546C109.661 36.546 109.185 36.7327 108.83 37.106C108.485 37.47 108.312 37.9973 108.312 38.688V43H106.716V35.286H108.312V36.168C108.573 35.8507 108.905 35.6033 109.306 35.426C109.717 35.2487 110.151 35.16 110.608 35.16ZM116.62 34.264C116.33 34.264 116.088 34.166 115.892 33.97C115.696 33.774 115.598 33.5313 115.598 33.242C115.598 32.9527 115.696 32.71 115.892 32.514C116.088 32.318 116.33 32.22 116.62 32.22C116.9 32.22 117.138 32.318 117.334 32.514C117.53 32.71 117.628 32.9527 117.628 33.242C117.628 33.5313 117.53 33.774 117.334 33.97C117.138 34.166 116.9 34.264 116.62 34.264ZM117.404 35.286V43H115.808V35.286H117.404ZM122.481 41.572L124.665 35.286H126.359L123.419 43H121.515L118.589 35.286H120.297L122.481 41.572ZM134.636 38.954C134.636 39.2433 134.617 39.5047 134.58 39.738H128.686C128.732 40.354 128.961 40.8487 129.372 41.222C129.782 41.5953 130.286 41.782 130.884 41.782C131.742 41.782 132.349 41.4227 132.704 40.704H134.426C134.192 41.4133 133.768 41.9967 133.152 42.454C132.545 42.902 131.789 43.126 130.884 43.126C130.146 43.126 129.484 42.9627 128.896 42.636C128.317 42.3 127.86 41.8333 127.524 41.236C127.197 40.6293 127.034 39.9293 127.034 39.136C127.034 38.3427 127.192 37.6473 127.51 37.05C127.836 36.4433 128.289 35.9767 128.868 35.65C129.456 35.3233 130.128 35.16 130.884 35.16C131.612 35.16 132.26 35.3187 132.83 35.636C133.399 35.9533 133.842 36.4013 134.16 36.98C134.477 37.5493 134.636 38.2073 134.636 38.954ZM132.97 38.45C132.96 37.862 132.75 37.3907 132.34 37.036C131.929 36.6813 131.42 36.504 130.814 36.504C130.263 36.504 129.792 36.6813 129.4 37.036C129.008 37.3813 128.774 37.8527 128.7 38.45H132.97ZM137.802 36.406C138.036 36.014 138.344 35.7107 138.726 35.496C139.118 35.272 139.58 35.16 140.112 35.16V36.812H139.706C139.081 36.812 138.605 36.9707 138.278 37.288C137.961 37.6053 137.802 38.156 137.802 38.94V43H136.206V35.286H137.802V36.406ZM144.379 43.126C143.773 43.126 143.227 43.0187 142.741 42.804C142.265 42.58 141.887 42.2813 141.607 41.908C141.327 41.5253 141.178 41.1007 141.159 40.634H142.811C142.839 40.9607 142.993 41.236 143.273 41.46C143.563 41.6747 143.922 41.782 144.351 41.782C144.799 41.782 145.145 41.698 145.387 41.53C145.639 41.3527 145.765 41.1287 145.765 40.858C145.765 40.5687 145.625 40.354 145.345 40.214C145.075 40.074 144.641 39.92 144.043 39.752C143.465 39.5933 142.993 39.4393 142.629 39.29C142.265 39.1407 141.948 38.912 141.677 38.604C141.416 38.296 141.285 37.89 141.285 37.386C141.285 36.9753 141.407 36.602 141.649 36.266C141.892 35.9207 142.237 35.65 142.685 35.454C143.143 35.258 143.665 35.16 144.253 35.16C145.131 35.16 145.835 35.384 146.367 35.832C146.909 36.2707 147.198 36.8727 147.235 37.638H145.639C145.611 37.2927 145.471 37.0173 145.219 36.812C144.967 36.6067 144.627 36.504 144.197 36.504C143.777 36.504 143.455 36.5833 143.231 36.742C143.007 36.9007 142.895 37.1107 142.895 37.372C142.895 37.5773 142.97 37.75 143.119 37.89C143.269 38.03 143.451 38.142 143.665 38.226C143.88 38.3007 144.197 38.3987 144.617 38.52C145.177 38.6693 145.635 38.8233 145.989 38.982C146.353 39.1313 146.666 39.3553 146.927 39.654C147.189 39.9527 147.324 40.3493 147.333 40.844C147.333 41.2827 147.212 41.6747 146.969 42.02C146.727 42.3653 146.381 42.636 145.933 42.832C145.495 43.028 144.977 43.126 144.379 43.126ZM148.526 39.108C148.526 38.3333 148.684 37.6473 149.002 37.05C149.328 36.4527 149.767 35.9907 150.318 35.664C150.878 35.328 151.494 35.16 152.166 35.16C152.772 35.16 153.3 35.2813 153.748 35.524C154.205 35.7573 154.569 36.0513 154.84 36.406V35.286H156.45V43H154.84V41.852C154.569 42.216 154.2 42.5193 153.734 42.762C153.267 43.0047 152.735 43.126 152.138 43.126C151.475 43.126 150.868 42.958 150.318 42.622C149.767 42.2767 149.328 41.8007 149.002 41.194C148.684 40.578 148.526 39.8827 148.526 39.108ZM154.84 39.136C154.84 38.604 154.728 38.142 154.504 37.75C154.289 37.358 154.004 37.0593 153.65 36.854C153.295 36.6487 152.912 36.546 152.502 36.546C152.091 36.546 151.708 36.6487 151.354 36.854C150.999 37.05 150.71 37.344 150.486 37.736C150.271 38.1187 150.164 38.576 150.164 39.108C150.164 39.64 150.271 40.1067 150.486 40.508C150.71 40.9093 150.999 41.2173 151.354 41.432C151.718 41.6373 152.1 41.74 152.502 41.74C152.912 41.74 153.295 41.6373 153.65 41.432C154.004 41.2267 154.289 40.928 154.504 40.536C154.728 40.1347 154.84 39.668 154.84 39.136ZM160.142 32.64V43H158.546V32.64H160.142ZM171.082 38.002C171.605 38.0953 172.048 38.3707 172.412 38.828C172.776 39.2853 172.958 39.8033 172.958 40.382C172.958 40.8767 172.828 41.3247 172.566 41.726C172.314 42.118 171.946 42.4307 171.46 42.664C170.975 42.888 170.41 43 169.766 43H165.874V33.27H169.584C170.247 33.27 170.816 33.382 171.292 33.606C171.768 33.83 172.128 34.1333 172.37 34.516C172.613 34.8893 172.734 35.3093 172.734 35.776C172.734 36.336 172.585 36.8027 172.286 37.176C171.988 37.5493 171.586 37.8247 171.082 38.002ZM167.47 37.358H169.444C169.967 37.358 170.373 37.2413 170.662 37.008C170.961 36.7653 171.11 36.42 171.11 35.972C171.11 35.5333 170.961 35.1927 170.662 34.95C170.373 34.698 169.967 34.572 169.444 34.572H167.47V37.358ZM169.626 41.698C170.168 41.698 170.592 41.5673 170.9 41.306C171.208 41.0447 171.362 40.6807 171.362 40.214C171.362 39.738 171.199 39.36 170.872 39.08C170.546 38.8 170.112 38.66 169.57 38.66H167.47V41.698H169.626ZM174.161 39.108C174.161 38.3333 174.319 37.6473 174.637 37.05C174.963 36.4527 175.402 35.9907 175.953 35.664C176.513 35.328 177.129 35.16 177.801 35.16C178.407 35.16 178.935 35.2813 179.383 35.524C179.84 35.7573 180.204 36.0513 180.475 36.406V35.286H182.085V43H180.475V41.852C180.204 42.216 179.835 42.5193 179.369 42.762C178.902 43.0047 178.37 43.126 177.773 43.126C177.11 43.126 176.503 42.958 175.953 42.622C175.402 42.2767 174.963 41.8007 174.637 41.194C174.319 40.578 174.161 39.8827 174.161 39.108ZM180.475 39.136C180.475 38.604 180.363 38.142 180.139 37.75C179.924 37.358 179.639 37.0593 179.285 36.854C178.93 36.6487 178.547 36.546 178.137 36.546C177.726 36.546 177.343 36.6487 176.989 36.854C176.634 37.05 176.345 37.344 176.121 37.736C175.906 38.1187 175.799 38.576 175.799 39.108C175.799 39.64 175.906 40.1067 176.121 40.508C176.345 40.9093 176.634 41.2173 176.989 41.432C177.353 41.6373 177.735 41.74 178.137 41.74C178.547 41.74 178.93 41.6373 179.285 41.432C179.639 41.2267 179.924 40.928 180.139 40.536C180.363 40.1347 180.475 39.668 180.475 39.136ZM188.073 35.16C188.68 35.16 189.221 35.286 189.697 35.538C190.182 35.79 190.56 36.1633 190.831 36.658C191.102 37.1527 191.237 37.75 191.237 38.45V43H189.655V38.688C189.655 37.9973 189.482 37.47 189.137 37.106C188.792 36.7327 188.32 36.546 187.723 36.546C187.126 36.546 186.65 36.7327 186.295 37.106C185.95 37.47 185.777 37.9973 185.777 38.688V43H184.181V35.286H185.777V36.168C186.038 35.8507 186.37 35.6033 186.771 35.426C187.182 35.2487 187.616 35.16 188.073 35.16ZM196.325 39.15L199.881 43H197.725L194.869 39.682V43H193.273V32.64H194.869V38.66L197.669 35.286H199.881L196.325 39.15Z" fill="white" fill-opacity="0.6"/>
<line x1="84.5" y1="30" x2="84.5" y2="46" stroke="white"/>
<rect x="30" y="74" width="48" height="40" rx="10" fill="white" fill-opacity="0.3"/>
<path fill-rule="evenodd" clip-rule="evenodd" d="M298.555 82.2848C299.103 82.8323 299.615 83.4154 300.086 84.0291C300.787 84.9643 301.395 85.9675 301.897 87.0246C302.024 87.2884 302.141 87.5561 302.254 87.8256C302.577 88.6315 302.84 89.4594 303.043 90.3027C303.144 90.7302 303.231 91.1612 303.302 91.5976C303.31 91.6517 303.319 91.7062 303.327 91.7608C303.335 91.8153 303.344 91.8699 303.352 91.924C303.355 91.9488 303.359 91.9732 303.362 91.9976L303.362 91.9976C303.365 92.022 303.368 92.0464 303.371 92.0712L303.374 92.0871C303.378 92.1229 303.38 92.1383 303.381 92.1412C303.405 92.3431 303.426 92.5451 303.441 92.747C303.513 93.6215 303.522 94.4996 303.465 95.3759C303.451 95.5959 303.433 95.8123 303.41 96.0305C303.401 96.1313 303.389 96.2306 303.378 96.3298C303.378 96.3255 303.378 96.3293 303.375 96.3462C303.371 96.3764 303.367 96.4061 303.363 96.4358C303.359 96.4655 303.355 96.4952 303.352 96.5254C303.29 96.96 303.212 97.3928 303.118 97.8238C302.907 98.7879 302.614 99.7327 302.244 100.65C301.799 101.712 301.252 102.732 300.609 103.688C300.438 103.943 300.261 104.191 300.077 104.436C299.609 105.045 299.1 105.623 298.557 106.166C298.279 106.445 298.257 106.956 298.557 107.231C298.857 107.506 299.323 107.529 299.621 107.231C300.971 105.877 302.124 104.309 302.994 102.606C303.833 100.962 304.43 99.1862 304.739 97.3626C305.053 95.4947 305.081 93.6145 304.837 91.7377C304.597 89.9053 304.061 88.1243 303.288 86.4463C302.49 84.7185 301.402 83.1238 300.111 81.726C299.952 81.5529 299.788 81.385 299.625 81.2189L299.625 81.2188L299.623 81.2169C299.345 80.9384 298.834 80.9171 298.559 81.2169C298.28 81.5203 298.259 81.985 298.555 82.2848ZM303.378 92.1138L303.374 92.0871L303.366 92.0198L303.369 92.0437C303.371 92.0601 303.373 92.0765 303.375 92.0925L303.378 92.1138ZM303.378 92.1138L303.381 92.1412C303.381 92.1422 303.381 92.1417 303.381 92.1401L303.378 92.1138ZM299.997 83.9114L300.055 83.9873C300.036 83.9623 300.017 83.9373 299.997 83.9114ZM302.309 100.492C302.292 100.534 302.274 100.576 302.257 100.619L302.309 100.492ZM299.999 104.54C300.014 104.52 300.029 104.5 300.044 104.48L299.999 104.54ZM291.219 89.6251C291.429 89.8356 291.625 90.0579 291.808 90.292C292.138 90.7405 292.416 91.2232 292.635 91.7342C292.762 92.0572 292.867 92.3866 292.948 92.7241C292.989 92.8961 293.024 93.0664 293.053 93.2403C293.056 93.2616 293.059 93.2833 293.063 93.305C293.065 93.3238 293.068 93.3426 293.071 93.3611C293.073 93.376 293.076 93.3973 293.079 93.417C293.079 93.4221 293.08 93.4272 293.081 93.4322L293.082 93.4434L293.082 93.4458C293.082 93.4564 293.083 93.4658 293.083 93.4727C293.088 93.5205 293.092 93.5701 293.095 93.6198L293.095 93.6199C293.126 93.9729 293.129 94.3312 293.106 94.6842C293.101 94.7711 293.094 94.8598 293.085 94.9467C293.083 94.974 293.08 95.0021 293.076 95.0304C293.068 95.0864 293.064 95.1158 293.063 95.1284C293.038 95.2863 293.009 95.4429 292.975 95.5995C292.892 95.9786 292.776 96.3496 292.635 96.7096C292.415 97.222 292.137 97.7081 291.807 98.1587C291.623 98.3928 291.426 98.6139 291.217 98.8262C290.938 99.1047 290.917 99.6155 291.217 99.8905C291.517 100.165 291.983 100.188 292.281 99.8905C293.427 98.7375 294.234 97.2315 294.504 95.6244C294.781 93.9853 294.562 92.3267 293.867 90.8154C293.482 89.9799 292.93 89.2118 292.281 88.5591C292.003 88.2806 291.492 88.2593 291.217 88.559C290.942 88.8624 290.921 89.3271 291.219 89.6251ZM293.071 95.0754L293.076 95.0304L293.083 94.984L293.078 95.0248L293.072 95.0656L293.071 95.0754ZM293.071 95.0754L293.063 95.1284C293.06 95.1541 293.067 95.1099 293.071 95.078L293.071 95.0779L293.071 95.0754ZM293.082 93.4428C293.082 93.407 293.081 93.3587 293.069 93.3414C293.068 93.341 293.069 93.349 293.071 93.3611L293.072 93.3698C293.074 93.3804 293.075 93.3915 293.077 93.4026L293.079 93.417L293.081 93.4322C293.081 93.4333 293.081 93.4343 293.081 93.4354C293.082 93.438 293.082 93.4405 293.082 93.4428ZM293.082 93.4434C293.082 93.4432 293.082 93.443 293.082 93.4428C293.088 93.4827 293.086 93.4706 293.082 93.4434ZM291.738 90.1981L291.77 90.2402C291.76 90.2264 291.749 90.2123 291.738 90.1981ZM292.689 91.8655L292.657 91.7872C292.668 91.8132 292.679 91.8394 292.689 91.8655ZM291.737 98.2532C291.747 98.2391 291.758 98.2253 291.768 98.2115L291.737 98.2532ZM295.991 87.1385C295.66 86.7118 295.303 86.3051 294.921 85.9232C294.623 85.6251 294.644 85.1604 294.917 84.8588C295.192 84.5591 295.703 84.5803 295.982 84.8588C296.102 84.9795 296.221 85.1019 296.336 85.2278C297.262 86.2318 298.045 87.376 298.618 88.6159C299.175 89.8221 299.56 91.0975 299.733 92.4137C299.914 93.7796 299.893 95.1384 299.666 96.4971C299.446 97.8098 299.011 99.0888 298.407 100.275C297.784 101.498 296.954 102.622 295.985 103.594C295.687 103.892 295.221 103.869 294.921 103.594C294.621 103.319 294.642 102.809 294.921 102.53C295.303 102.148 295.66 101.741 295.991 101.315C296.593 100.505 297.095 99.6248 297.488 98.6945C297.744 98.0538 297.949 97.3896 298.096 96.7153C298.162 96.4155 298.217 96.1122 298.259 95.8071C298.26 95.7998 298.262 95.7921 298.263 95.7842C298.263 95.7802 298.264 95.7754 298.265 95.7699L298.27 95.722C298.281 95.651 298.288 95.5801 298.295 95.5091C298.311 95.3512 298.323 95.1934 298.334 95.0337C298.375 94.4146 298.367 93.7938 298.316 93.1782C298.307 93.0467 298.292 92.9152 298.277 92.7836C298.284 92.8386 298.279 92.7843 298.273 92.749C298.273 92.7436 298.272 92.7383 298.271 92.7331C298.271 92.7289 298.27 92.7248 298.27 92.7206L298.27 92.7206C298.268 92.71 298.267 92.6989 298.265 92.6878C298.264 92.6767 298.263 92.6656 298.261 92.655C298.262 92.665 298.263 92.6745 298.265 92.6833C298.262 92.6666 298.26 92.6502 298.258 92.6338L298.258 92.6337L298.226 92.4208C298.174 92.1104 298.114 91.8017 298.041 91.4984C297.9 90.9047 297.714 90.3245 297.489 89.761C297.096 88.8298 296.593 87.9484 295.991 87.1385ZM295.904 87.0229C295.921 87.0455 295.938 87.0682 295.955 87.0909C295.938 87.0685 295.921 87.0461 295.904 87.0229ZM297.544 89.8948L297.516 89.8255C297.525 89.8486 297.535 89.8717 297.544 89.8948ZM298.265 92.6833C298.271 92.7331 298.275 92.7648 298.277 92.7836C298.275 92.7668 298.273 92.7499 298.271 92.7331C298.269 92.716 298.267 92.6995 298.265 92.6833ZM298.263 95.7824C298.265 95.7762 298.266 95.77 298.267 95.7636C298.273 95.7334 298.279 95.7019 298.277 95.6758C298.276 95.6748 298.268 95.7462 298.263 95.7824ZM297.544 98.5584C297.535 98.5815 297.525 98.6047 297.516 98.6278L297.544 98.5584ZM295.904 101.43C295.921 101.407 295.938 101.385 295.955 101.362C295.938 101.385 295.921 101.408 295.904 101.43Z" fill="white" fill-opacity="0.4"/>
<path d="M42.848 142.208H36.468V144.056C36.7467 143.807 37.106 143.609 37.546 143.462C38.0007 143.315 38.5067 143.242 39.064 143.242C40.0613 143.242 40.9047 143.477 41.594 143.946C42.2833 144.415 42.7967 145.046 43.134 145.838C43.4713 146.615 43.64 147.481 43.64 148.434C43.64 150.194 43.1413 151.565 42.144 152.548C41.1613 153.516 39.8047 154 38.074 154C36.8127 154 35.72 153.78 34.796 153.34C33.8867 152.9 33.19 152.291 32.706 151.514C32.2367 150.737 32.0167 149.849 32.046 148.852H36.798C36.798 149.087 36.8787 149.307 37.04 149.512C37.2013 149.717 37.4653 149.82 37.832 149.82C38.1987 149.82 38.47 149.688 38.646 149.424C38.822 149.16 38.91 148.801 38.91 148.346C38.91 147.921 38.8073 147.598 38.602 147.378C38.4113 147.158 38.1327 147.048 37.766 147.048C37.458 147.048 37.2233 147.121 37.062 147.268C36.9007 147.415 36.82 147.583 36.82 147.774H32.068V137.918H42.848V142.208ZM45.8874 151.58V147.51L52.4434 138.16H57.7014V147.356H59.2854V151.58H57.7014V154H52.7734V151.58H45.8874ZM53.1694 143.726L50.7934 147.356H53.1694V143.726ZM63.7317 145.156C63.145 144.819 62.683 144.379 62.3457 143.836C62.023 143.279 61.8617 142.619 61.8617 141.856C61.8617 141.064 62.0743 140.345 62.4997 139.7C62.925 139.055 63.5703 138.541 64.4357 138.16C65.3157 137.764 66.3937 137.566 67.6697 137.566C68.9457 137.566 70.0163 137.764 70.8817 138.16C71.7617 138.541 72.4143 139.055 72.8397 139.7C73.265 140.345 73.4777 141.064 73.4777 141.856C73.4777 142.619 73.309 143.279 72.9717 143.836C72.649 144.379 72.1943 144.819 71.6077 145.156C73.089 146.021 73.8297 147.319 73.8297 149.05C73.8297 150.165 73.551 151.111 72.9937 151.888C72.4363 152.665 71.6883 153.252 70.7497 153.648C69.811 154.044 68.7843 154.242 67.6697 154.242C66.555 154.242 65.5283 154.044 64.5897 153.648C63.651 153.252 62.903 152.665 62.3457 151.888C61.7883 151.111 61.5097 150.165 61.5097 149.05C61.5097 147.319 62.2503 146.021 63.7317 145.156ZM68.6817 142.67C68.6817 142.259 68.5863 141.937 68.3957 141.702C68.205 141.453 67.963 141.328 67.6697 141.328C67.3763 141.328 67.1343 141.453 66.9437 141.702C66.753 141.937 66.6577 142.259 66.6577 142.67C66.6577 143.095 66.753 143.418 66.9437 143.638C67.1343 143.858 67.3763 143.968 67.6697 143.968C67.963 143.968 68.205 143.858 68.3957 143.638C68.5863 143.418 68.6817 143.095 68.6817 142.67ZM67.6697 147.246C67.2297 147.246 66.8777 147.393 66.6137 147.686C66.3643 147.965 66.2397 148.324 66.2397 148.764C66.2397 149.204 66.3643 149.563 66.6137 149.842C66.863 150.121 67.215 150.26 67.6697 150.26C68.1243 150.26 68.4763 150.121 68.7257 149.842C68.975 149.563 69.0997 149.204 69.0997 148.764C69.0997 148.324 68.9677 147.965 68.7037 147.686C68.4543 147.393 68.1097 147.246 67.6697 147.246ZM80.7207 148.984C80.794 149.409 80.926 149.732 81.1167 149.952C81.322 150.157 81.6007 150.26 81.9527 150.26C82.4953 150.26 82.8473 149.989 83.0087 149.446C83.1847 148.889 83.2727 148.001 83.2727 146.784C83.0087 147.195 82.6273 147.517 82.1287 147.752C81.63 147.987 81.0653 148.104 80.4347 148.104C79.0413 148.104 77.9193 147.664 77.0687 146.784C76.218 145.904 75.7927 144.635 75.7927 142.978C75.7927 141.878 76.02 140.925 76.4747 140.118C76.944 139.297 77.604 138.666 78.4547 138.226C79.32 137.786 80.3247 137.566 81.4687 137.566C83.786 137.566 85.392 138.248 86.2867 139.612C87.196 140.976 87.6507 142.919 87.6507 145.442C87.6507 148.346 87.2033 150.524 86.3087 151.976C85.4287 153.428 83.94 154.154 81.8427 154.154C80.684 154.154 79.6867 153.912 78.8507 153.428C78.0147 152.944 77.3693 152.313 76.9147 151.536C76.4747 150.744 76.2253 149.893 76.1667 148.984H80.7207ZM81.6447 144.364C82.0407 144.364 82.356 144.254 82.5907 144.034C82.8253 143.814 82.9427 143.506 82.9427 143.11C82.9427 142.67 82.8253 142.347 82.5907 142.142C82.3707 141.922 82.0553 141.812 81.6447 141.812C81.234 141.812 80.9113 141.922 80.6767 142.142C80.4567 142.347 80.3467 142.67 80.3467 143.11C80.3467 143.506 80.464 143.814 80.6987 144.034C80.9333 144.254 81.2487 144.364 81.6447 144.364ZM103.482 141.504L98.4659 154H93.4499L98.5099 142.098H92.8339V137.918H103.482V141.504ZM105.06 151.58V147.51L111.616 138.16H116.874V147.356H118.458V151.58H116.874V154H111.946V151.58H105.06ZM112.342 143.726L109.966 147.356H112.342V143.726ZM132.474 142.208H126.094V144.056C126.373 143.807 126.732 143.609 127.172 143.462C127.627 143.315 128.133 143.242 128.69 143.242C129.687 143.242 130.531 143.477 131.22 143.946C131.909 144.415 132.423 145.046 132.76 145.838C133.097 146.615 133.266 147.481 133.266 148.434C133.266 150.194 132.767 151.565 131.77 152.548C130.787 153.516 129.431 154 127.7 154C126.439 154 125.346 153.78 124.422 153.34C123.513 152.9 122.816 152.291 122.332 151.514C121.863 150.737 121.643 149.849 121.672 148.852H126.424C126.424 149.087 126.505 149.307 126.666 149.512C126.827 149.717 127.091 149.82 127.458 149.82C127.825 149.82 128.096 149.688 128.272 149.424C128.448 149.16 128.536 148.801 128.536 148.346C128.536 147.921 128.433 147.598 128.228 147.378C128.037 147.158 127.759 147.048 127.392 147.048C127.084 147.048 126.849 147.121 126.688 147.268C126.527 147.415 126.446 147.583 126.446 147.774H121.694V137.918H132.474V142.208ZM134.985 150.106C136.951 148.639 138.505 147.312 139.649 146.124C140.793 144.921 141.365 143.799 141.365 142.758C141.365 142.406 141.285 142.135 141.123 141.944C140.977 141.753 140.779 141.658 140.529 141.658C140.236 141.658 140.001 141.812 139.825 142.12C139.664 142.413 139.605 142.868 139.649 143.484H134.919C134.963 142.12 135.257 140.998 135.799 140.118C136.357 139.238 137.075 138.593 137.955 138.182C138.835 137.771 139.803 137.566 140.859 137.566C142.737 137.566 144.108 138.021 144.973 138.93C145.853 139.825 146.293 140.976 146.293 142.384C146.293 143.865 145.817 145.259 144.863 146.564C143.925 147.855 142.744 148.947 141.321 149.842H146.359V153.78H134.985V150.106ZM163.857 142.208H157.477V144.056C157.755 143.807 158.115 143.609 158.555 143.462C159.009 143.315 159.515 143.242 160.073 143.242C161.07 143.242 161.913 143.477 162.603 143.946C163.292 144.415 163.805 145.046 164.143 145.838C164.48 146.615 164.649 147.481 164.649 148.434C164.649 150.194 164.15 151.565 163.153 152.548C162.17 153.516 160.813 154 159.083 154C157.821 154 156.729 153.78 155.805 153.34C154.895 152.9 154.199 152.291 153.715 151.514C153.245 150.737 153.025 149.849 153.055 148.852H157.807C157.807 149.087 157.887 149.307 158.049 149.512C158.21 149.717 158.474 149.82 158.841 149.82C159.207 149.82 159.479 149.688 159.655 149.424C159.831 149.16 159.919 148.801 159.919 148.346C159.919 147.921 159.816 147.598 159.611 147.378C159.42 147.158 159.141 147.048 158.775 147.048C158.467 147.048 158.232 147.121 158.071 147.268C157.909 147.415 157.829 147.583 157.829 147.774H153.077V137.918H163.857V142.208ZM176.796 141.504L171.78 154H166.764L171.824 142.098H166.148V137.918H176.796V141.504ZM177.846 150.106C179.811 148.639 181.366 147.312 182.51 146.124C183.654 144.921 184.226 143.799 184.226 142.758C184.226 142.406 184.145 142.135 183.984 141.944C183.837 141.753 183.639 141.658 183.39 141.658C183.097 141.658 182.862 141.812 182.686 142.12C182.525 142.413 182.466 142.868 182.51 143.484H177.78C177.824 142.12 178.117 140.998 178.66 140.118C179.217 139.238 179.936 138.593 180.816 138.182C181.696 137.771 182.664 137.566 183.72 137.566C185.597 137.566 186.969 138.021 187.834 138.93C188.714 139.825 189.154 140.976 189.154 142.384C189.154 143.865 188.677 145.259 187.724 146.564C186.785 147.855 185.605 148.947 184.182 149.842H189.22V153.78H177.846V150.106ZM197.941 142.802C197.853 142.362 197.721 142.039 197.545 141.834C197.383 141.629 197.127 141.526 196.775 141.526C196.217 141.526 195.843 141.812 195.653 142.384C195.477 142.941 195.389 143.814 195.389 145.002C195.653 144.591 196.034 144.269 196.533 144.034C197.031 143.799 197.596 143.682 198.227 143.682C199.635 143.682 200.757 144.115 201.593 144.98C202.443 145.845 202.869 147.099 202.869 148.742C202.869 149.842 202.634 150.803 202.165 151.624C201.71 152.431 201.057 153.054 200.207 153.494C199.356 153.934 198.351 154.154 197.193 154.154C194.89 154.154 193.291 153.45 192.397 152.042C191.502 150.619 191.055 148.632 191.055 146.08C191.055 144.085 191.26 142.472 191.671 141.24C192.081 140.008 192.727 139.099 193.607 138.512C194.501 137.925 195.66 137.632 197.083 137.632C198.828 137.632 200.141 138.131 201.021 139.128C201.915 140.125 202.407 141.35 202.495 142.802H197.941ZM197.017 147.422C196.621 147.422 196.305 147.532 196.071 147.752C195.836 147.972 195.719 148.28 195.719 148.676C195.719 149.116 195.829 149.446 196.049 149.666C196.283 149.871 196.606 149.974 197.017 149.974C197.427 149.974 197.743 149.871 197.963 149.666C198.197 149.446 198.315 149.116 198.315 148.676C198.315 148.28 198.197 147.972 197.963 147.752C197.728 147.532 197.413 147.422 197.017 147.422ZM213.599 148.984C213.672 149.409 213.804 149.732 213.995 149.952C214.2 150.157 214.479 150.26 214.831 150.26C215.374 150.26 215.726 149.989 215.887 149.446C216.063 148.889 216.151 148.001 216.151 146.784C215.887 147.195 215.506 147.517 215.007 147.752C214.508 147.987 213.944 148.104 213.313 148.104C211.92 148.104 210.798 147.664 209.947 146.784C209.096 145.904 208.671 144.635 208.671 142.978C208.671 141.878 208.898 140.925 209.353 140.118C209.822 139.297 210.482 138.666 211.333 138.226C212.198 137.786 213.203 137.566 214.347 137.566C216.664 137.566 218.27 138.248 219.165 139.612C220.074 140.976 220.529 142.919 220.529 145.442C220.529 148.346 220.082 150.524 219.187 151.976C218.307 153.428 216.818 154.154 214.721 154.154C213.562 154.154 212.565 153.912 211.729 153.428C210.893 152.944 210.248 152.313 209.793 151.536C209.353 150.744 209.104 149.893 209.045 148.984H213.599ZM214.523 144.364C214.919 144.364 215.234 144.254 215.469 144.034C215.704 143.814 215.821 143.506 215.821 143.11C215.821 142.67 215.704 142.347 215.469 142.142C215.249 141.922 214.934 141.812 214.523 141.812C214.112 141.812 213.79 141.922 213.555 142.142C213.335 142.347 213.225 142.67 213.225 143.11C213.225 143.506 213.342 143.814 213.577 144.034C213.812 144.254 214.127 144.364 214.523 144.364ZM224.636 145.156C224.049 144.819 223.587 144.379 223.25 143.836C222.927 143.279 222.766 142.619 222.766 141.856C222.766 141.064 222.979 140.345 223.404 139.7C223.829 139.055 224.475 138.541 225.34 138.16C226.22 137.764 227.298 137.566 228.574 137.566C229.85 137.566 230.921 137.764 231.786 138.16C232.666 138.541 233.319 139.055 233.744 139.7C234.169 140.345 234.382 141.064 234.382 141.856C234.382 142.619 234.213 143.279 233.876 143.836C233.553 144.379 233.099 144.819 232.512 145.156C233.993 146.021 234.734 147.319 234.734 149.05C234.734 150.165 234.455 151.111 233.898 151.888C233.341 152.665 232.593 153.252 231.654 153.648C230.715 154.044 229.689 154.242 228.574 154.242C227.459 154.242 226.433 154.044 225.494 153.648C224.555 153.252 223.807 152.665 223.25 151.888C222.693 151.111 222.414 150.165 222.414 149.05C222.414 147.319 223.155 146.021 224.636 145.156ZM229.586 142.67C229.586 142.259 229.491 141.937 229.3 141.702C229.109 141.453 228.867 141.328 228.574 141.328C228.281 141.328 228.039 141.453 227.848 141.702C227.657 141.937 227.562 142.259 227.562 142.67C227.562 143.095 227.657 143.418 227.848 143.638C228.039 143.858 228.281 143.968 228.574 143.968C228.867 143.968 229.109 143.858 229.3 143.638C229.491 143.418 229.586 143.095 229.586 142.67ZM228.574 147.246C228.134 147.246 227.782 147.393 227.518 147.686C227.269 147.965 227.144 148.324 227.144 148.764C227.144 149.204 227.269 149.563 227.518 149.842C227.767 150.121 228.119 150.26 228.574 150.26C229.029 150.26 229.381 150.121 229.63 149.842C229.879 149.563 230.004 149.204 230.004 148.764C230.004 148.324 229.872 147.965 229.608 147.686C229.359 147.393 229.014 147.246 228.574 147.246ZM236.653 150.106C238.618 148.639 240.173 147.312 241.317 146.124C242.461 144.921 243.033 143.799 243.033 142.758C243.033 142.406 242.952 142.135 242.791 141.944C242.644 141.753 242.446 141.658 242.197 141.658C241.904 141.658 241.669 141.812 241.493 142.12C241.332 142.413 241.273 142.868 241.317 143.484H236.587C236.631 142.12 236.924 140.998 237.467 140.118C238.024 139.238 238.743 138.593 239.623 138.182C240.503 137.771 241.471 137.566 242.527 137.566C244.404 137.566 245.776 138.021 246.641 138.93C247.521 139.825 247.961 140.976 247.961 142.384C247.961 143.865 247.484 145.259 246.531 146.564C245.592 147.855 244.412 148.947 242.989 149.842H248.027V153.78H236.653V150.106ZM259.762 141.504L254.746 154H249.73L254.79 142.098H249.114V137.918H259.762V141.504Z" fill="white"/>
<path d="M30.868 174.834C30.868 173.229 31.1293 171.978 31.652 171.082C32.1747 170.177 33.0893 169.724 34.396 169.724C35.6933 169.724 36.6033 170.177 37.126 171.082C37.6487 171.978 37.91 173.229 37.91 174.834C37.91 176.467 37.6487 177.737 37.126 178.642C36.6033 179.547 35.6933 180 34.396 180C33.0893 180 32.1747 179.547 31.652 178.642C31.1293 177.737 30.868 176.467 30.868 174.834ZM36.65 174.834C36.65 174.022 36.594 173.336 36.482 172.776C36.3793 172.207 36.16 171.749 35.824 171.404C35.4973 171.059 35.0213 170.886 34.396 170.886C33.7613 170.886 33.276 171.059 32.94 171.404C32.6133 171.749 32.394 172.207 32.282 172.776C32.1793 173.336 32.128 174.022 32.128 174.834C32.128 175.674 32.1793 176.379 32.282 176.948C32.394 177.517 32.6133 177.975 32.94 178.32C33.276 178.665 33.7613 178.838 34.396 178.838C35.0213 178.838 35.4973 178.665 35.824 178.32C36.16 177.975 36.3793 177.517 36.482 176.948C36.594 176.379 36.65 175.674 36.65 174.834ZM39.491 177.746V176.78L44.405 169.976H45.931V176.64H47.331V177.746H45.931V180H44.671V177.746H39.491ZM44.727 171.306L40.961 176.64H44.727V171.306ZM53.7137 166.812L49.8777 182.38H48.6177L52.4397 166.812H53.7137ZM55.3879 178.978C56.5732 178.026 57.5019 177.247 58.1739 176.64C58.8459 176.024 59.4106 175.385 59.8679 174.722C60.3346 174.05 60.5679 173.392 60.5679 172.748C60.5679 172.141 60.4186 171.665 60.1199 171.32C59.8306 170.965 59.3592 170.788 58.7059 170.788C58.0712 170.788 57.5766 170.989 57.2219 171.39C56.8766 171.782 56.6899 172.309 56.6619 172.972H55.4299C55.4672 171.927 55.7846 171.119 56.3819 170.55C56.9792 169.981 57.7492 169.696 58.6919 169.696C59.6532 169.696 60.4139 169.962 60.9739 170.494C61.5432 171.026 61.8279 171.759 61.8279 172.692C61.8279 173.467 61.5946 174.223 61.1279 174.96C60.6706 175.688 60.1479 176.332 59.5599 176.892C58.9719 177.443 58.2206 178.087 57.3059 178.824H62.1219V179.888H55.3879V178.978ZM63.4266 177.746V176.78L68.3406 169.976H69.8666V176.64H71.2666V177.746H69.8666V180H68.6066V177.746H63.4266ZM68.6626 171.306L64.8966 176.64H68.6626V171.306Z" fill="white" fill-opacity="0.6"/>
<g clip-path="url(#clip0_1_242)">
<path d="M274.143 197.345V195.501C274.153 195.346 274.131 195.19 274.077 195.045C274.023 194.899 273.939 194.766 273.83 194.656C273.721 194.545 273.589 194.46 273.445 194.404C273.3 194.348 273.145 194.324 272.99 194.333C272.788 194.32 272.585 194.361 272.404 194.453C272.223 194.545 272.07 194.684 271.96 194.856C271.861 194.689 271.718 194.553 271.547 194.461C271.377 194.369 271.185 194.325 270.992 194.333C270.823 194.325 270.655 194.361 270.504 194.437C270.354 194.514 270.226 194.628 270.133 194.77V194.407H269.496V197.345H270.139V195.728C270.126 195.628 270.134 195.526 270.165 195.429C270.195 195.332 270.246 195.243 270.315 195.169C270.383 195.094 270.467 195.036 270.561 194.998C270.655 194.959 270.756 194.942 270.857 194.948C271.28 194.948 271.494 195.224 271.494 195.722V197.357H272.138V195.728C272.125 195.628 272.134 195.526 272.164 195.429C272.195 195.333 272.246 195.244 272.315 195.17C272.383 195.096 272.467 195.037 272.56 194.999C272.654 194.96 272.754 194.943 272.855 194.948C273.291 194.948 273.499 195.224 273.499 195.722V197.357L274.143 197.345ZM283.667 194.407H282.619V193.516H281.975V194.407H281.392V194.991H281.987V196.343C281.987 197.025 282.251 197.431 283.005 197.431C283.287 197.432 283.563 197.353 283.802 197.203L283.618 196.656C283.447 196.759 283.253 196.816 283.054 196.822C282.747 196.822 282.631 196.626 282.631 196.331V194.991H283.673L283.667 194.407ZM289.105 194.333C288.949 194.329 288.796 194.366 288.66 194.442C288.524 194.518 288.411 194.629 288.332 194.763V194.407H287.701V197.345H288.339V195.698C288.339 195.212 288.547 194.942 288.952 194.942C289.088 194.94 289.223 194.965 289.35 195.015L289.546 194.401C289.401 194.349 289.247 194.322 289.093 194.321L289.105 194.333ZM280.884 194.641C280.523 194.425 280.108 194.319 279.688 194.333C278.946 194.333 278.462 194.69 278.462 195.274C278.462 195.753 278.817 196.048 279.473 196.14L279.78 196.183C280.129 196.232 280.295 196.324 280.295 196.49C280.295 196.718 280.062 196.847 279.627 196.847C279.277 196.857 278.933 196.749 278.652 196.54L278.345 197.037C278.717 197.297 279.162 197.431 279.614 197.418C280.461 197.418 280.951 197.019 280.951 196.46C280.951 195.9 280.565 195.673 279.927 195.581L279.621 195.538C279.345 195.501 279.124 195.446 279.124 195.249C279.124 195.052 279.332 194.905 279.682 194.905C280.005 194.909 280.322 194.995 280.602 195.157L280.884 194.641ZM297.961 194.333C297.805 194.329 297.652 194.366 297.516 194.442C297.38 194.518 297.267 194.629 297.188 194.763V194.407H296.557V197.345H297.195V195.698C297.195 195.212 297.403 194.942 297.808 194.942C297.944 194.94 298.079 194.965 298.206 195.015L298.402 194.401C298.257 194.349 298.103 194.322 297.949 194.321L297.961 194.333ZM289.746 195.87C289.738 196.076 289.774 196.282 289.85 196.474C289.926 196.666 290.042 196.84 290.189 196.984C290.336 197.129 290.511 197.241 290.704 197.314C290.897 197.386 291.103 197.418 291.309 197.406C291.692 197.426 292.068 197.301 292.363 197.056L292.057 196.54C291.837 196.708 291.568 196.801 291.291 196.804C291.055 196.785 290.835 196.677 290.675 196.503C290.514 196.329 290.425 196.101 290.425 195.864C290.425 195.627 290.514 195.398 290.675 195.224C290.835 195.05 291.055 194.942 291.291 194.923C291.568 194.926 291.837 195.019 292.057 195.188L292.363 194.671C292.068 194.426 291.692 194.301 291.309 194.321C291.103 194.309 290.897 194.341 290.704 194.413C290.511 194.486 290.336 194.598 290.189 194.743C290.042 194.888 289.926 195.061 289.85 195.253C289.774 195.445 289.738 195.651 289.746 195.857V195.87ZM295.717 195.87V194.407H295.079V194.763C294.971 194.624 294.831 194.512 294.671 194.437C294.511 194.362 294.336 194.327 294.16 194.333C293.753 194.333 293.363 194.495 293.076 194.783C292.789 195.071 292.627 195.462 292.627 195.87C292.627 196.277 292.789 196.668 293.076 196.956C293.363 197.244 293.753 197.406 294.16 197.406C294.336 197.413 294.511 197.377 294.671 197.302C294.831 197.227 294.971 197.116 295.079 196.976V197.332H295.717V195.87ZM293.344 195.87C293.355 195.697 293.415 195.531 293.518 195.392C293.621 195.253 293.763 195.147 293.925 195.088C294.087 195.028 294.264 195.018 294.432 195.058C294.6 195.097 294.753 195.185 294.872 195.311C294.991 195.437 295.07 195.595 295.101 195.765C295.131 195.936 295.111 196.111 295.043 196.271C294.976 196.43 294.863 196.566 294.719 196.662C294.575 196.758 294.406 196.809 294.233 196.81C294.112 196.812 293.992 196.788 293.88 196.741C293.768 196.693 293.667 196.623 293.584 196.535C293.5 196.446 293.436 196.342 293.395 196.227C293.353 196.113 293.336 195.991 293.344 195.87ZM285.65 194.333C285.244 194.339 284.856 194.506 284.573 194.798C284.289 195.091 284.133 195.484 284.139 195.891C284.145 196.299 284.312 196.687 284.603 196.971C284.895 197.255 285.287 197.412 285.693 197.406C286.134 197.429 286.568 197.286 286.91 197.007L286.604 196.533C286.362 196.728 286.062 196.836 285.751 196.841C285.541 196.859 285.331 196.794 285.167 196.66C285.004 196.525 284.899 196.332 284.875 196.122H287.051C287.051 196.042 287.051 195.962 287.051 195.876C287.051 194.954 286.481 194.339 285.659 194.339L285.65 194.333ZM285.65 194.905C285.746 194.903 285.841 194.92 285.929 194.954C286.018 194.989 286.1 195.041 286.168 195.107C286.237 195.173 286.293 195.253 286.331 195.34C286.369 195.428 286.39 195.522 286.392 195.618H284.859C284.87 195.42 284.958 195.235 285.104 195.102C285.249 194.969 285.441 194.898 285.638 194.905H285.65ZM301.624 195.876V193.227H301.011V194.763C300.903 194.624 300.763 194.512 300.603 194.437C300.443 194.362 300.268 194.327 300.091 194.333C299.685 194.333 299.295 194.495 299.008 194.783C298.72 195.071 298.559 195.462 298.559 195.87C298.559 196.277 298.72 196.668 299.008 196.956C299.295 197.244 299.685 197.406 300.091 197.406C300.268 197.413 300.443 197.377 300.603 197.302C300.763 197.227 300.903 197.116 301.011 196.976V197.332H301.624V195.876ZM302.688 196.918C302.728 196.917 302.767 196.924 302.804 196.939C302.839 196.953 302.872 196.974 302.899 197.001C302.926 197.027 302.948 197.058 302.964 197.093C302.979 197.129 302.987 197.167 302.987 197.206C302.987 197.245 302.979 197.284 302.964 197.32C302.948 197.355 302.926 197.386 302.899 197.412C302.872 197.438 302.839 197.459 302.804 197.474C302.767 197.49 302.728 197.498 302.688 197.498C302.63 197.498 302.573 197.481 302.524 197.449C302.475 197.418 302.436 197.373 302.412 197.32C302.396 197.284 302.389 197.245 302.389 197.206C302.389 197.167 302.396 197.129 302.412 197.093C302.427 197.058 302.449 197.027 302.476 197.001C302.504 196.974 302.536 196.953 302.571 196.939C302.611 196.923 302.654 196.916 302.697 196.918H302.688ZM302.688 197.437C302.718 197.437 302.749 197.431 302.777 197.418C302.803 197.407 302.827 197.39 302.847 197.369C302.885 197.327 302.907 197.272 302.907 197.216C302.907 197.159 302.885 197.104 302.847 197.062C302.827 197.041 302.803 197.025 302.777 197.013C302.749 197.001 302.718 196.994 302.688 196.994C302.657 196.995 302.627 197.001 302.599 197.013C302.571 197.024 302.546 197.041 302.525 197.062C302.487 197.104 302.466 197.159 302.466 197.216C302.466 197.272 302.487 197.327 302.525 197.369C302.546 197.39 302.571 197.407 302.599 197.418C302.63 197.432 302.663 197.438 302.697 197.437H302.688ZM302.706 197.071C302.735 197.07 302.763 197.078 302.786 197.096C302.795 197.104 302.803 197.113 302.807 197.125C302.812 197.136 302.814 197.148 302.813 197.16C302.814 197.17 302.812 197.181 302.808 197.19C302.805 197.2 302.799 197.208 302.792 197.216C302.774 197.232 302.751 197.242 302.728 197.243L302.816 197.345H302.746L302.663 197.243H302.636V197.345H302.577V197.074L302.706 197.071ZM302.639 197.123V197.197H302.706C302.718 197.201 302.731 197.201 302.743 197.197C302.745 197.193 302.746 197.188 302.746 197.183C302.746 197.179 302.745 197.174 302.743 197.17C302.745 197.165 302.746 197.16 302.746 197.156C302.746 197.151 302.745 197.146 302.743 197.142C302.731 197.138 302.718 197.138 302.706 197.142L302.639 197.123ZM299.267 195.876C299.277 195.703 299.337 195.537 299.44 195.398C299.544 195.259 299.685 195.153 299.847 195.094C300.01 195.034 300.186 195.024 300.354 195.064C300.522 195.103 300.675 195.191 300.794 195.317C300.913 195.443 300.993 195.601 301.023 195.771C301.054 195.942 301.034 196.117 300.966 196.277C300.898 196.436 300.785 196.572 300.641 196.668C300.497 196.764 300.328 196.815 300.156 196.816C300.034 196.818 299.914 196.794 299.802 196.747C299.69 196.699 299.589 196.629 299.506 196.541C299.423 196.453 299.358 196.348 299.317 196.233C299.276 196.119 299.259 195.997 299.267 195.876ZM277.738 195.876V194.407H277.101V194.763C276.993 194.624 276.853 194.512 276.693 194.437C276.533 194.362 276.358 194.327 276.181 194.333C275.775 194.333 275.385 194.495 275.097 194.783C274.81 195.071 274.649 195.462 274.649 195.87C274.649 196.277 274.81 196.668 275.097 196.956C275.385 197.244 275.775 197.406 276.181 197.406C276.358 197.413 276.533 197.377 276.693 197.302C276.853 197.227 276.993 197.116 277.101 196.976V197.332H277.738V195.876ZM275.366 195.876C275.376 195.703 275.436 195.537 275.54 195.398C275.643 195.259 275.784 195.153 275.947 195.094C276.109 195.034 276.285 195.024 276.453 195.064C276.621 195.103 276.774 195.191 276.893 195.317C277.012 195.443 277.092 195.601 277.122 195.771C277.153 195.942 277.133 196.117 277.065 196.277C276.997 196.436 276.884 196.572 276.74 196.668C276.596 196.764 276.428 196.815 276.255 196.816C276.133 196.819 276.012 196.796 275.899 196.749C275.787 196.702 275.685 196.632 275.601 196.543C275.517 196.455 275.452 196.35 275.41 196.235C275.369 196.12 275.352 195.998 275.36 195.876H275.366Z" fill="white"/>
<path d="M290.328 172.021H280.672V189.417H290.328V172.021Z" fill="#FF5F00"/>
<path d="M281.285 180.721C281.283 179.046 281.662 177.392 282.392 175.885C283.122 174.378 284.185 173.057 285.5 172.022C283.872 170.74 281.917 169.942 279.858 169.721C277.799 169.499 275.72 169.863 273.858 170.77C271.995 171.678 270.425 173.092 269.327 174.851C268.228 176.611 267.646 178.644 267.646 180.72C267.646 182.795 268.228 184.829 269.327 186.589C270.425 188.348 271.995 189.762 273.858 190.669C275.72 191.577 277.799 191.94 279.858 191.719C281.917 191.498 283.872 190.7 285.5 189.418C284.186 188.383 283.123 187.063 282.393 185.556C281.663 184.05 281.284 182.396 281.285 180.721Z" fill="#EB001B"/>
<path d="M303.356 180.721C303.356 182.796 302.773 184.83 301.675 186.59C300.576 188.349 299.005 189.763 297.143 190.67C295.28 191.578 293.201 191.941 291.142 191.719C289.083 191.498 287.128 190.7 285.5 189.417C286.814 188.382 287.876 187.061 288.607 185.554C289.337 184.048 289.717 182.394 289.717 180.719C289.717 179.044 289.337 177.391 288.607 175.884C287.876 174.377 286.814 173.057 285.5 172.021C287.128 170.738 289.083 169.941 291.142 169.719C293.201 169.497 295.28 169.861 297.143 170.768C299.005 171.675 300.576 173.089 301.675 174.848C302.773 176.608 303.356 178.642 303.356 180.718V180.721Z" fill="#F79E1B"/>
<path d="M302.301 187.573V187.217H302.445V187.143H302.081V187.217H302.237V187.573H302.301ZM303.009 187.573V187.143H302.899L302.77 187.45L302.642 187.143H302.544V187.573H302.623V187.25L302.743 187.53H302.826L302.945 187.25V187.576L303.009 187.573Z" fill="#F79E1B"/>
</g>
<defs>
<filter id="filter0_f_1_242" x="134.178" y="-102.984" width="300.345" height="348.406" filterUnits="userSpaceOnUse" color-interpolation-filters="sRGB">
<feFlood flood-opacity="0" result="BackgroundImageFix"/>
<feBlend mode="normal" in="SourceGraphic" in2="BackgroundImageFix" result="shape"/>
<feGaussianBlur stdDeviation="37" result="effect1_foregroundBlur_1_242"/>
</filter>
<filter id="filter1_f_1_242" x="-152.714" y="-178.656" width="438.631" height="399.547" filterUnits="userSpaceOnUse" color-interpolation-filters="sRGB">
<feFlood flood-opacity="0" result="BackgroundImageFix"/>
<feBlend mode="normal" in="SourceGraphic" in2="BackgroundImageFix" result="shape"/>
<feGaussianBlur stdDeviation="62" result="effect1_foregroundBlur_1_242"/>
</filter>
<filter id="filter2_b_1_242" x="-40" y="-40" width="415" height="292" filterUnits="userSpaceOnUse" color-interpolation-filters="sRGB">
<feFlood flood-opacity="0" result="BackgroundImageFix"/>
<feGaussianBlur in="BackgroundImageFix" stdDeviation="20"/>
<feComposite in2="SourceAlpha" operator="in" result="effect1_backgroundBlur_1_242"/>
<feBlend mode="normal" in="SourceGraphic" in2="effect1_backgroundBlur_1_242" result="shape"/>
</filter>
<linearGradient id="paint0_linear_1_242" x1="535.406" y1="5.58333" x2="345.664" y2="322.247" gradientUnits="userSpaceOnUse">
<stop stop-color="#55C0F7"/>
<stop offset="1" stop-color="#A8E8FA"/>
</linearGradient>
<linearGradient id="paint1_linear_1_242" x1="341.625" y1="4.78571" x2="530.624" y2="341.176" gradientUnits="userSpaceOnUse">
<stop stop-color="#1B5CF6"/>
<stop offset="0.503297" stop-color="#429EFF"/>
<stop offset="1" stop-color="#CB5BAA"/>
</linearGradient>
<linearGradient id="paint2_linear_1_242" x1="535.406" y1="5.58333" x2="345.664" y2="322.247" gradientUnits="userSpaceOnUse">
<stop stop-color="#55C0F7"/>
<stop offset="1" stop-color="#A8E8FA"/>
</linearGradient>
<linearGradient id="paint3_linear_1_242" x1="341.625" y1="4.78571" x2="530.624" y2="341.176" gradientUnits="userSpaceOnUse">
<stop stop-color="#1B5CF6"/>
<stop offset="0.503297" stop-color="#429EFF"/>
<stop offset="0.890632" stop-color="#D33BA7"/>
</linearGradient>
<clipPath id="clip0_1_242">
<rect width="45" height="37" fill="white" transform="translate(263 165)"/>
</clipPath>
</defs>
</svg>
