<svg width="335" height="212" viewBox="0 0 335 212" fill="none" xmlns="http://www.w3.org/2000/svg">
<rect width="212" height="335" rx="17" transform="matrix(4.37114e-08 -1 -1 -4.37114e-08 335 212)" fill="url(#paint0_linear_1_447)" fill-opacity="0.8" style="mix-blend-mode:soft-light"/>
<rect width="212" height="335" rx="17" transform="matrix(4.37114e-08 -1 -1 -4.37114e-08 335 212)" fill="url(#paint1_linear_1_447)"/>
<mask id="mask0_1_447" style="mask-type:alpha" maskUnits="userSpaceOnUse" x="0" y="0" width="335" height="212">
<rect width="212" height="335" rx="17" transform="matrix(4.37114e-08 -1 -1 -4.37114e-08 335 212)" fill="url(#paint2_linear_1_447)" fill-opacity="0.8"/>
<rect width="212" height="335" rx="17" transform="matrix(4.37114e-08 -1 -1 -4.37114e-08 335 212)" fill="url(#paint3_linear_1_447)"/>
</mask>
<g mask="url(#mask0_1_447)">
<g filter="url(#filter0_f_1_447)">
<ellipse cx="123.5" cy="175.524" rx="123.5" ry="175.524" transform="matrix(4.37114e-08 -1 -1 -4.37114e-08 360.339 235)" fill="#1C5AF6"/>
</g>
</g>
<rect x="9.15527e-05" y="30" width="335" height="56" fill="black" fill-opacity="0.6"/>
<rect x="17.0001" y="102" width="302" height="44" rx="4" fill="white" fill-opacity="0.3"/>
<path d="M267.2 123.54V119.38H273.98V134H269.32V123.54H267.2ZM275.548 130.46C277.335 129.127 278.748 127.92 279.788 126.84C280.828 125.747 281.348 124.727 281.348 123.78C281.348 123.46 281.275 123.213 281.128 123.04C280.995 122.867 280.815 122.78 280.588 122.78C280.322 122.78 280.108 122.92 279.948 123.2C279.802 123.467 279.748 123.88 279.788 124.44H275.488C275.528 123.2 275.795 122.18 276.288 121.38C276.795 120.58 277.448 119.993 278.248 119.62C279.048 119.247 279.928 119.06 280.888 119.06C282.595 119.06 283.842 119.473 284.628 120.3C285.428 121.113 285.828 122.16 285.828 123.44C285.828 124.787 285.395 126.053 284.528 127.24C283.675 128.413 282.602 129.407 281.308 130.22H285.888V133.8H275.548V130.46ZM287.216 123.96C287.256 122.373 287.716 121.16 288.596 120.32C289.49 119.48 290.75 119.06 292.376 119.06C293.43 119.06 294.33 119.24 295.076 119.6C295.823 119.96 296.383 120.447 296.756 121.06C297.143 121.673 297.336 122.367 297.336 123.14C297.336 124.073 297.116 124.807 296.676 125.34C296.236 125.86 295.743 126.213 295.196 126.4V126.48C296.796 127.08 297.596 128.193 297.596 129.82C297.596 130.673 297.396 131.427 296.996 132.08C296.596 132.733 296.023 133.24 295.276 133.6C294.543 133.96 293.67 134.14 292.656 134.14C290.923 134.14 289.563 133.727 288.576 132.9C287.59 132.073 287.083 130.78 287.056 129.02H291.376C291.35 129.5 291.416 129.867 291.576 130.12C291.75 130.36 292.043 130.48 292.456 130.48C292.696 130.48 292.896 130.393 293.056 130.22C293.216 130.033 293.296 129.793 293.296 129.5C293.296 129.127 293.17 128.847 292.916 128.66C292.676 128.46 292.263 128.36 291.676 128.36H290.936V124.78H291.656C292.563 124.833 293.016 124.473 293.016 123.7C293.016 123.367 292.943 123.12 292.796 122.96C292.663 122.8 292.49 122.72 292.276 122.72C291.783 122.72 291.536 123.133 291.536 123.96H287.216Z" fill="white"/>
<defs>
<filter id="filter0_f_1_447" x="-64.709" y="-85.9997" width="499.048" height="395" filterUnits="userSpaceOnUse" color-interpolation-filters="sRGB">
<feFlood flood-opacity="0" result="BackgroundImageFix"/>
<feBlend mode="normal" in="SourceGraphic" in2="BackgroundImageFix" result="shape"/>
<feGaussianBlur stdDeviation="37" result="effect1_foregroundBlur_1_447"/>
</filter>
<linearGradient id="paint0_linear_1_447" x1="200.406" y1="5.58333" x2="10.6642" y2="322.247" gradientUnits="userSpaceOnUse">
<stop stop-color="#55C0F7"/>
<stop offset="1" stop-color="#A8E8FA"/>
</linearGradient>
<linearGradient id="paint1_linear_1_447" x1="6.625" y1="4.78571" x2="195.624" y2="341.176" gradientUnits="userSpaceOnUse">
<stop stop-color="#1B5CF6"/>
<stop offset="0.503297" stop-color="#429EFF"/>
<stop offset="1" stop-color="#CB5BAA"/>
</linearGradient>
<linearGradient id="paint2_linear_1_447" x1="200.406" y1="5.58333" x2="10.6642" y2="322.247" gradientUnits="userSpaceOnUse">
<stop stop-color="#55C0F7"/>
<stop offset="1" stop-color="#A8E8FA"/>
</linearGradient>
<linearGradient id="paint3_linear_1_447" x1="6.625" y1="4.78571" x2="195.624" y2="341.176" gradientUnits="userSpaceOnUse">
<stop stop-color="#1B5CF6"/>
<stop offset="0.503297" stop-color="#429EFF"/>
<stop offset="0.890632" stop-color="#D33BA7"/>
</linearGradient>
</defs>
</svg>
