<svg width="20" height="20" viewBox="0 0 20 20" fill="none" xmlns="http://www.w3.org/2000/svg">
<path d="M19.4593 8.70055L11.302 0.539478C11.131 0.368444 10.9281 0.232773 10.7048 0.140208C10.4814 0.0476439 10.242 0 10.0003 0C9.75854 0 9.51916 0.0476439 9.29581 0.140208C9.07247 0.232773 8.86954 0.368444 8.69861 0.539478L0.544895 8.69599L0.536715 8.70418C0.284699 8.95715 0.111688 9.27802 0.0387783 9.62765C-0.0341312 9.97728 -0.00379179 10.3406 0.126098 10.6733C0.255988 11.0059 0.479819 11.2936 0.7703 11.5013C1.06078 11.7089 1.40536 11.8275 1.76204 11.8426C1.78113 11.8426 1.80022 11.8426 1.81931 11.8426H2.14473V17.8447C2.14545 18.4161 2.37266 18.9639 2.77652 19.3679C3.18038 19.772 3.72792 19.9993 4.29906 20H7.49055C7.64589 19.9998 7.79478 19.9379 7.90454 19.8279C8.0143 19.7179 8.07594 19.5688 8.07594 19.4134V14.7045C8.07642 14.4438 8.18023 14.1938 8.3646 14.0096C8.54897 13.8253 8.79886 13.7216 9.05948 13.7214H10.942C11.2026 13.7216 11.4525 13.8253 11.6369 14.0096C11.8213 14.1938 11.9251 14.4438 11.9255 14.7045V19.4134C11.9255 19.5688 11.9872 19.7179 12.0969 19.8279C12.2067 19.9379 12.3556 19.9998 12.5109 20H15.7024C16.2736 19.9993 16.8211 19.772 17.225 19.3679C17.6288 18.9639 17.856 18.4161 17.8568 17.8447V11.8426H18.1585C18.5226 11.8425 18.8785 11.7345 19.1812 11.5323C19.4839 11.33 19.72 11.0425 19.8594 10.7061C19.9989 10.3696 20.0356 9.99938 19.9649 9.64211C19.8942 9.28483 19.7192 8.95655 19.462 8.69873L19.4593 8.70055ZM18.6294 10.4757C18.5674 10.5382 18.4936 10.5877 18.4123 10.6214C18.331 10.6551 18.2438 10.6724 18.1558 10.6722H17.2777C17.1222 10.6722 16.9731 10.734 16.8631 10.844C16.7532 10.954 16.6914 11.1032 16.6914 11.2587V17.8511C16.6909 18.1116 16.5873 18.3614 16.4031 18.5457C16.2189 18.7299 15.9693 18.8337 15.7088 18.8341H13.0963V14.7118C13.0956 14.1402 12.8683 13.5923 12.4642 13.1882C12.0602 12.7841 11.5124 12.5569 10.9411 12.5565H9.06129C8.49 12.5569 7.94222 12.7841 7.53817 13.1882C7.13412 13.5923 6.90679 14.1402 6.90606 14.7118V18.8341H4.30087C4.04041 18.8337 3.79076 18.7299 3.60658 18.5457C3.42241 18.3614 3.31873 18.1116 3.31825 17.8511V11.2587C3.31825 11.1032 3.25648 10.954 3.14652 10.844C3.03657 10.734 2.88744 10.6722 2.73195 10.6722H1.83204C1.70064 10.6701 1.57276 10.6294 1.4644 10.555C1.35604 10.4806 1.272 10.3759 1.22282 10.254C1.17363 10.1321 1.16147 9.99838 1.18786 9.86959C1.21424 9.7408 1.27801 9.62265 1.37117 9.52993L9.52852 1.36886C9.59065 1.30669 9.66441 1.25738 9.74559 1.22373C9.82677 1.19008 9.91378 1.17276 10.0017 1.17276C10.0895 1.17276 10.1765 1.19008 10.2577 1.22373C10.3389 1.25738 10.4127 1.30669 10.4748 1.36886L18.6303 9.52811C18.7551 9.65384 18.8251 9.82382 18.8251 10.001C18.8251 10.1782 18.7551 10.3482 18.6303 10.4739L18.6294 10.4757Z" fill="#7A91D2"/>
</svg>
